<?xml version="1.0" encoding="UTF-8"?>
<svg version="1.1" viewBox="0 0 521 391" xmlns="http://www.w3.org/2000/svg" xmlns:xlink="http://www.w3.org/1999/xlink">
<title>HP-Fraud</title>
<desc>Created with Sketch.</desc>
<defs>
<linearGradient id="c" x1="7.0479%" x2="98.843%" y1="92.665%" y2="-15.614%">
<stop stop-color="#239FFE" offset="0"/>
<stop stop-color="#30AAFE" offset=".17432"/>
<stop stop-color="#6FE0FE" offset="1"/>
</linearGradient>
<rect id="b" width="361" height="256" rx="3"/>
<filter id="e" x="-13.3%" y="-18.8%" width="126.6%" height="137.5%">
<feOffset dx="0" dy="0" in="SourceAlpha" result="shadowOffsetOuter1"/>
<feGaussianBlur in="shadowOffsetOuter1" result="shadowBlurOuter1" stdDeviation="16"/>
<feColorMatrix in="shadowBlurOuter1" values="0 0 0 0 0.51372549   0 0 0 0 0.643137255   0 0 0 0 1  0 0 0 0.5 0"/>
</filter>
<linearGradient id="d" x1="92.935%" x2="5.6296%" y1="8.5131%" y2="93.375%">
<stop stop-color="#FEB6DE" offset="0"/>
<stop stop-color="#83A4FF" offset="1"/>
</linearGradient>
</defs>
<g fill="none" fill-rule="evenodd">
<g transform="translate(-116 -5014)">
<g transform="translate(148 5014)">
<g transform="translate(323)">
<circle cx="83" cy="83" r="83" fill="url(#c)"/>
<g transform="translate(51 41)" fill="#fff" fill-rule="nonzero">
<path d="m32.961 1.9422e-4c-0.43445 0.0052032-0.84936 0.1816-1.1548 0.49098-8.3319 8.428-18.928 14.243-30.503 16.752-0.76217 0.16475-1.3055 0.84077-1.3032 1.6215v31.526c0 8.8963 3.4299 15.33 9.1484 20.589 5.7185 5.2589 13.631 9.5129 23.013 14.814 0.24869 0.1378 0.52869 0.209 0.8129 0.20673h0.05161c0.28422 0.0022715 0.56421-0.068934 0.8129-0.20673 9.3822-5.3006 17.294-9.5546 23.013-14.814 5.7185-5.2592 9.1484-11.693 9.1484-20.589v-31.539c0.0022514-0.78077-0.54106-1.4568-1.3032-1.6215-11.587-2.4976-22.198-8.3158-30.542-16.745-0.31599-0.31656-0.74662-0.49138-1.1935-0.48452zm0.019357 3.7018c8.2894 7.9973 18.518 13.609 29.716 16.28v30.409c0 8.0813-2.8326 13.33-8.0774 18.153-5.0833 4.6751-12.599 8.8263-21.619 13.916-9.0199-5.0892-16.536-9.2404-21.619-13.916-5.2448-4.8233-8.0774-10.072-8.0774-18.153v-30.396c11.186-2.6802 21.4-8.2973 29.677-16.293zm0.019354 19.458c-10.926 0-19.819 8.9049-19.819 19.846 0 10.941 8.893 19.846 19.819 19.846 10.926 0 19.819-8.9049 19.819-19.846 0-10.941-8.893-19.846-19.819-19.846zm0 3.3077c9.1412 0 16.516 7.3851 16.516 16.538 0 3.9104-1.4035 7.445-3.6581 10.272-0.97093-4.2209-3.9545-7.6681-7.8903-9.277 1.0061-1.1619 1.6387-2.656 1.6387-4.3026-9.9e-6 -3.6338-2.9774-6.6154-6.6065-6.6154-3.6291 0-6.6064 2.9815-6.6065 6.6154 3.3e-6 1.6433 0.62973 3.1351 1.6323 4.2961-3.9257 1.6056-6.9234 5.045-7.8968 9.277-2.2496-2.8253-3.6452-6.3598-3.6452-10.265 0-9.1534 7.375-16.538 16.516-16.538zm0 9.923c1.8439 0 3.3032 1.4613 3.3032 3.3077-3.3e-6 1.8463-1.4593 3.3077-3.3032 3.3077-1.8439 0-3.3032-1.4613-3.3032-3.3077 3.3e-6 -1.8463 1.4593-3.3077 3.3032-3.3077zm0.11613 9.923c5.3963 0.062846 9.7248 4.3969 9.7935 9.8003 0.0018793 0.01726 0.00403 0.03449 0.0064512 0.051683-2.7655 2.0903-6.1736 3.3787-9.9161 3.3787-3.7509 0-7.1668-1.2929-9.9355-3.3917 0.018203-0.089399 0.028992-0.18015 0.032256-0.27133 0.19545-5.4001 4.6232-9.6312 10.019-9.5677z"/>
</g>
</g>
<g transform="translate(0 103)">
<mask id="a" fill="white">
<use xlink:href="#b"/>
</mask>
<use fill="black" filter="url(#e)" xlink:href="#b"/>
<use fill="#FFFFFF" fill-rule="evenodd" xlink:href="#b"/>
<rect x="-9" y="147" width="381" height="125" fill="url(#d)" mask="url(#a)"/>
<path d="m20.909 77v-8.5898h1.166l4.5117 6.7441v-6.7441h1.0898v8.5898h-1.166l-4.5117-6.75v6.75h-1.0898zm12.604-0.76758c-0.39063 0.33203-0.7666 0.56641-1.1279 0.70312-0.36133 0.13672-0.74902 0.20508-1.1631 0.20508-0.6836 0-1.209-0.16699-1.5762-0.50098-0.36719-0.33399-0.55078-0.76074-0.55078-1.2803 0-0.30469 0.069335-0.58301 0.20801-0.83496 0.13867-0.25195 0.32031-0.4541 0.54492-0.60645 0.22461-0.15234 0.47754-0.26758 0.75879-0.3457 0.20703-0.054688 0.51953-0.10742 0.9375-0.1582 0.85157-0.10156 1.4785-0.22266 1.8809-0.36328 0.0039063-0.14453 0.0058594-0.23633 0.0058594-0.27539 0-0.42969-0.099608-0.73242-0.29883-0.9082-0.26953-0.23828-0.66992-0.35742-1.2012-0.35742-0.4961 0-0.8623 0.086913-1.0986 0.26074-0.23633 0.17383-0.41113 0.48144-0.52441 0.92285l-1.0312-0.14062c0.09375-0.44141 0.24805-0.79785 0.46289-1.0693 0.21484-0.27149 0.52539-0.48047 0.93164-0.62695 0.40625-0.14649 0.87695-0.21973 1.4121-0.21973 0.53125 0 0.96289 0.062499 1.2949 0.1875 0.33203 0.125 0.57617 0.28223 0.73242 0.47168 0.15625 0.18945 0.26562 0.42871 0.32812 0.71777 0.035156 0.17969 0.052734 0.5039 0.052734 0.97266v1.4062c0 0.98047 0.022461 1.6006 0.067383 1.8604 0.044922 0.25977 0.13379 0.50879 0.2666 0.74707h-1.1016c-0.10938-0.21875-0.17969-0.47461-0.21094-0.76758zm-0.087891-2.3555c-0.38281 0.15625-0.95703 0.28906-1.7227 0.39844-0.4336 0.0625-0.74023 0.13281-0.91992 0.21094s-0.31836 0.19238-0.41602 0.34277c-0.097657 0.15039-0.14648 0.31738-0.14648 0.50098 0 0.28125 0.10644 0.51562 0.31934 0.70312 0.21289 0.1875 0.52441 0.28125 0.93457 0.28125 0.40625 0 0.76758-0.088866 1.084-0.2666 0.31641-0.17774 0.54883-0.4209 0.69727-0.72949 0.11328-0.23828 0.16992-0.58984 0.16992-1.0547v-0.38672zm2.7012 3.123v-6.2227h0.94336v0.87305c0.19531-0.30469 0.45508-0.5498 0.7793-0.73535s0.69336-0.27832 1.1074-0.27832c0.46094 0 0.83887 0.095702 1.1338 0.28711 0.29492 0.19141 0.50293 0.45898 0.62402 0.80273 0.49219-0.72657 1.1328-1.0898 1.9219-1.0898 0.61719 0 1.0918 0.1709 1.4238 0.5127 0.33203 0.3418 0.49805 0.86816 0.49805 1.5791v4.2715h-1.0488v-3.9199c0-0.42188-0.034179-0.72558-0.10254-0.91113s-0.19238-0.33496-0.37207-0.44824-0.39062-0.16992-0.63281-0.16992c-0.4375 0-0.80078 0.14551-1.0898 0.43652-0.28906 0.29102-0.43359 0.75683-0.43359 1.3975v3.6152h-1.0547v-4.043c0-0.46875-0.085937-0.82031-0.25781-1.0547-0.17188-0.23438-0.45312-0.35156-0.84375-0.35156-0.29688 0-0.57129 0.078124-0.82324 0.23438-0.25195 0.15625-0.43457 0.38476-0.54785 0.68555-0.11328 0.30078-0.16992 0.73437-0.16992 1.3008v3.2285h-1.0547zm14.256-2.0039l1.0898 0.13477c-0.17188 0.63672-0.49023 1.1309-0.95508 1.4824-0.46485 0.35156-1.0586 0.52734-1.7812 0.52734-0.91016 0-1.6318-0.28027-2.165-0.84082s-0.7998-1.3467-0.7998-2.3584c0-1.0469 0.26953-1.8594 0.80859-2.4375 0.53907-0.57813 1.2383-0.86719 2.0977-0.86719 0.83204 0 1.5117 0.2832 2.0391 0.84961s0.79102 1.3633 0.79102 2.3906c0 0.0625-0.0019531 0.15625-0.0058593 0.28125h-4.6406c0.039063 0.6836 0.23242 1.207 0.58008 1.5703 0.34766 0.36328 0.78125 0.54492 1.3008 0.54492 0.38672 0 0.7168-0.10156 0.99023-0.30469s0.49023-0.52734 0.65039-0.97266zm-3.4629-1.7051h3.4746c-0.046875-0.52344-0.17969-0.91601-0.39844-1.1777-0.33594-0.40625-0.77148-0.60938-1.3066-0.60938-0.48438 0-0.8916 0.16211-1.2217 0.48633-0.33008 0.32422-0.5127 0.75781-0.54785 1.3008z" fill="#717783" mask="url(#a)"/>
<path d="m20.946 114v-8.5898h6.2109v1.0137h-5.0742v2.6309h4.752v1.0078h-4.752v2.9238h5.2734v1.0137h-6.4102zm7.8457 0v-6.2227h0.94336v0.87305c0.19531-0.30469 0.45508-0.5498 0.7793-0.73535 0.32422-0.18555 0.69336-0.27832 1.1074-0.27832 0.46094 0 0.83887 0.095702 1.1338 0.28711 0.29492 0.19141 0.50293 0.45898 0.62402 0.80273 0.49219-0.72657 1.1328-1.0898 1.9219-1.0898 0.61719 0 1.0918 0.1709 1.4238 0.5127s0.49805 0.86816 0.49805 1.5791v4.2715h-1.0488v-3.9199c0-0.42188-0.034179-0.72558-0.10254-0.91113-0.06836-0.18555-0.19238-0.33496-0.37207-0.44824s-0.39062-0.16992-0.63281-0.16992c-0.4375 0-0.80078 0.14551-1.0898 0.43652-0.28906 0.29102-0.43359 0.75683-0.43359 1.3975v3.6152h-1.0547v-4.043c0-0.46875-0.085937-0.82031-0.25781-1.0547-0.17188-0.23438-0.45312-0.35156-0.84375-0.35156-0.29688 0-0.57129 0.078124-0.82324 0.23438s-0.43457 0.38476-0.54785 0.68555c-0.11328 0.30078-0.16992 0.73437-0.16992 1.3008v3.2285h-1.0547zm14.057-0.76758c-0.39063 0.33203-0.7666 0.5664-1.1279 0.70312-0.36133 0.13672-0.74902 0.20508-1.1631 0.20508-0.6836 0-1.209-0.16699-1.5762-0.50098s-0.55078-0.76074-0.55078-1.2803c0-0.30469 0.069335-0.58301 0.20801-0.83496 0.13867-0.25195 0.32031-0.4541 0.54492-0.60644 0.22461-0.15234 0.47754-0.26758 0.75879-0.3457 0.20703-0.054688 0.51953-0.10742 0.9375-0.1582 0.85157-0.10156 1.4785-0.22266 1.8809-0.36328 0.0039063-0.14453 0.0058594-0.23633 0.0058594-0.27539 0-0.42969-0.099608-0.73242-0.29883-0.9082-0.26953-0.23828-0.66992-0.35742-1.2012-0.35742-0.4961 0-0.8623 0.086913-1.0986 0.26074-0.23633 0.17383-0.41113 0.48144-0.52441 0.92285l-1.0312-0.14062c0.09375-0.44141 0.24805-0.79785 0.46289-1.0693 0.21484-0.27148 0.52539-0.48047 0.93164-0.62695 0.40625-0.14648 0.87695-0.21973 1.4121-0.21973 0.53125 0 0.96289 0.062499 1.2949 0.1875 0.33203 0.125 0.57617 0.28222 0.73242 0.47168 0.15625 0.18946 0.26562 0.42871 0.32812 0.71777 0.035156 0.17969 0.052734 0.5039 0.052734 0.97266v1.4062c0 0.98047 0.022461 1.6006 0.067383 1.8604 0.044922 0.25977 0.13379 0.50879 0.2666 0.74707h-1.1016c-0.10938-0.21875-0.17969-0.47461-0.21094-0.76758zm-0.087891-2.3555c-0.38281 0.15625-0.95703 0.28906-1.7227 0.39844-0.4336 0.0625-0.74023 0.13281-0.91992 0.21094-0.17969 0.078126-0.31836 0.19238-0.41602 0.34277-0.097657 0.15039-0.14648 0.31738-0.14648 0.50098 0 0.28125 0.10644 0.51562 0.31934 0.70312s0.52441 0.28125 0.93457 0.28125c0.40625 0 0.76758-0.088866 1.084-0.2666 0.31641-0.17774 0.54883-0.4209 0.69727-0.72949 0.11328-0.23828 0.16992-0.58984 0.16992-1.0547v-0.38672zm2.707-4.2539v-1.2129h1.0547v1.2129h-1.0547zm0 7.377v-6.2227h1.0547v6.2227h-1.0547zm2.6367 0v-8.5898h1.0547v8.5898h-1.0547z" fill="#717783" mask="url(#a)"/>
<path d="m26.205 205.05v0.94922h-5.1328v-8.4551h1.0547v7.5059h4.0781zm3.8555 1.0605c-0.89844 0-1.6084-0.29199-2.1299-0.87598-0.52149-0.58399-0.78223-1.3818-0.78223-2.3936 0-1.0156 0.26074-1.8144 0.78223-2.3965 0.52149-0.58203 1.2314-0.87305 2.1299-0.87305s1.6084 0.29101 2.1299 0.87305c0.52149 0.58204 0.78223 1.3809 0.78223 2.3965 0 1.0117-0.26074 1.8096-0.78223 2.3936-0.52149 0.58399-1.2314 0.87598-2.1299 0.87598zm0-0.9082c0.59766 0 1.0586-0.20703 1.3828-0.62109 0.32422-0.41406 0.48633-0.99414 0.48633-1.7402 0-0.75-0.16211-1.3311-0.48633-1.7432-0.32422-0.41211-0.78515-0.61816-1.3828-0.61816-0.59766 0-1.0586 0.20605-1.3828 0.61816-0.32422 0.41211-0.48633 0.99316-0.48633 1.7432 0 0.7461 0.16211 1.3262 0.48633 1.7402 0.32422 0.41406 0.78515 0.62109 1.3828 0.62109zm9.7207-3.5859h-1.0195c-0.082032-0.3125-0.26074-0.58008-0.53613-0.80274s-0.63965-0.33398-1.0928-0.33398c-0.56641 0-1.0166 0.21094-1.3506 0.63281-0.33399 0.42188-0.50098 0.99023-0.50098 1.7051 0 0.73047 0.16797 1.3105 0.50391 1.7402 0.33594 0.42969 0.78515 0.64453 1.3477 0.64453 0.42578 0 0.78027-0.095702 1.0635-0.28711 0.2832-0.19141 0.47168-0.46484 0.56543-0.82031h1.0195c-0.089844 0.57813-0.36328 1.0586-0.82031 1.4414-0.45703 0.38282-1.0644 0.57422-1.8223 0.57422-0.88282 0-1.5869-0.29785-2.1123-0.89356-0.52539-0.59571-0.78809-1.3955-0.78809-2.3994 0-0.98438 0.26172-1.7715 0.78516-2.3613 0.52344-0.58985 1.2266-0.88476 2.1094-0.88476 0.76954 0 1.3818 0.20019 1.8369 0.60059 0.45508 0.40039 0.72559 0.88183 0.81152 1.4443zm3.4336 3.6094c0.51953 0 0.95019-0.15136 1.292-0.4541 0.3418-0.30274 0.5127-0.67871 0.5127-1.1279v-0.58008l-1.6992 0.11133c-0.92188 0.062501-1.3828 0.40625-1.3828 1.0312 0 0.32031 0.12109 0.57031 0.36328 0.75 0.24219 0.17969 0.54687 0.26953 0.91406 0.26953zm-0.1875 0.88477c-0.61328 0-1.1221-0.16894-1.5264-0.50684-0.4043-0.33789-0.60645-0.7959-0.60645-1.374 0-1.1563 0.76757-1.7793 2.3027-1.8691l1.8223-0.11133v-0.57422c0-0.80469-0.47656-1.207-1.4297-1.207-0.37891 0-0.69336 0.068359-0.94336 0.20508-0.25 0.13672-0.41016 0.33008-0.48047 0.58008h-1.0195c0.066407-0.50782 0.32812-0.91504 0.78516-1.2217 0.45703-0.30664 1.0215-0.45996 1.6934-0.45996 0.76954 0 1.3623 0.18652 1.7783 0.55957s0.62402 0.88769 0.62402 1.5439v4.3242h-0.96094v-0.93164h-0.09375c-0.20313 0.33594-0.47265 0.59375-0.80859 0.77344-0.33594 0.17969-0.71484 0.26953-1.1367 0.26953zm5.2852-8.0625h1.0078v1.6348h1.4062v0.84375h-1.4062v3.5742c0 0.3711 0.074218 0.64062 0.22266 0.80859 0.14844 0.16797 0.38672 0.25195 0.71484 0.25195 0.089844 0 0.16699-0.001953 0.23145-0.005859 0.064454-0.003906 0.14355-0.009766 0.2373-0.017578v0.84961c-0.097657 0.019532-0.19531 0.03418-0.29297 0.043946-0.097657 0.009765-0.19727 0.014648-0.29883 0.014648-0.64844 0-1.1143-0.13086-1.3975-0.39258-0.2832-0.26172-0.4248-0.69336-0.4248-1.2949v-3.832h-1.0195v-0.84375h1.0195v-1.6348zm3.9609 7.9512v-6.3164h1.0078v6.3164h-1.0078zm0.50391-7.5996c-0.19141 0-0.35644-0.069336-0.49512-0.20801-0.13867-0.13867-0.20801-0.30371-0.20801-0.49512 0-0.19531 0.069335-0.36133 0.20801-0.49805 0.13867-0.13672 0.30371-0.20508 0.49512-0.20508 0.19531 0 0.36133 0.068358 0.49805 0.20508 0.13672 0.13672 0.20508 0.30273 0.20508 0.49805 0 0.19141-0.068359 0.35644-0.20508 0.49512-0.13672 0.13867-0.30273 0.20801-0.49805 0.20801zm5.0215 7.7109c-0.89844 0-1.6084-0.29199-2.1299-0.87598-0.52149-0.58399-0.78223-1.3818-0.78223-2.3936 0-1.0156 0.26074-1.8144 0.78223-2.3965 0.52149-0.58203 1.2314-0.87305 2.1299-0.87305s1.6084 0.29101 2.1299 0.87305c0.52149 0.58204 0.78223 1.3809 0.78223 2.3965 0 1.0117-0.26074 1.8096-0.78223 2.3936-0.52149 0.58399-1.2314 0.87598-2.1299 0.87598zm0-0.9082c0.59766 0 1.0586-0.20703 1.3828-0.62109 0.32422-0.41406 0.48633-0.99414 0.48633-1.7402 0-0.75-0.16211-1.3311-0.48633-1.7432-0.32422-0.41211-0.78515-0.61816-1.3828-0.61816-0.59766 0-1.0586 0.20605-1.3828 0.61816-0.32422 0.41211-0.48633 0.99316-0.48633 1.7432 0 0.7461 0.16211 1.3262 0.48633 1.7402 0.32422 0.41406 0.78515 0.62109 1.3828 0.62109zm4.4941 0.79688v-6.3164h0.96094v0.99609h0.09375c0.16016-0.34766 0.39551-0.61914 0.70605-0.81445 0.31055-0.19531 0.70801-0.29297 1.1924-0.29297 0.71094 0 1.2568 0.20215 1.6377 0.60644 0.38086 0.4043 0.57129 0.98144 0.57129 1.7314v4.0898h-1.0078v-3.8438c0-0.57032-0.12207-0.99219-0.36621-1.2656-0.24414-0.27344-0.61816-0.41016-1.1221-0.41016-0.50391 0-0.90625 0.1582-1.207 0.47461-0.30078 0.31641-0.45117 0.75195-0.45117 1.3066v3.7383h-1.0078z" fill="#fff" mask="url(#a)"/>
<path d="m82.668 203.79h1.0664c0.066407 0.44141 0.29492 0.79297 0.68555 1.0547 0.39063 0.26172 0.88672 0.39258 1.4883 0.39258 0.57032 0 1.042-0.13769 1.415-0.41309 0.37305-0.27539 0.55957-0.62207 0.55957-1.04 0-0.35938-0.13672-0.6582-0.41016-0.89648-0.27344-0.23828-0.70117-0.42969-1.2832-0.57422l-1.084-0.28125c-0.76563-0.19531-1.3223-0.47363-1.6699-0.83496s-0.52148-0.84277-0.52148-1.4443c0-0.71875 0.27441-1.2998 0.82324-1.7432 0.54883-0.44336 1.2705-0.66504 2.165-0.66504 0.81641 0 1.5 0.21875 2.0508 0.65625s0.84766 0.99804 0.89062 1.6816h-1.0605c-0.074219-0.4336-0.28027-0.77246-0.61816-1.0166-0.33789-0.24414-0.77051-0.36621-1.2979-0.36621-0.5625 0-1.0146 0.1289-1.3564 0.38672s-0.5127 0.60156-0.5127 1.0312c0 0.33203 0.12598 0.60156 0.37793 0.80859 0.25195 0.20703 0.66894 0.38476 1.251 0.5332l0.88477 0.23438c0.875 0.21875 1.5029 0.51172 1.8838 0.87891s0.57129 0.86132 0.57129 1.4824c0 0.77735-0.28418 1.3955-0.85254 1.8545-0.56836 0.45899-1.3369 0.68848-2.3057 0.68848-0.89454 0-1.6279-0.21875-2.2002-0.65625-0.57227-0.4375-0.88574-1.0215-0.94043-1.752zm9.8672 1.4355c0.51953 0 0.95019-0.15136 1.292-0.4541 0.3418-0.30274 0.5127-0.67871 0.5127-1.1279v-0.58008l-1.6992 0.11133c-0.92188 0.062501-1.3828 0.40625-1.3828 1.0312 0 0.32031 0.12109 0.57031 0.36328 0.75 0.24219 0.17969 0.54687 0.26953 0.91406 0.26953zm-0.1875 0.88477c-0.61328 0-1.1221-0.16894-1.5264-0.50684-0.4043-0.33789-0.60645-0.7959-0.60645-1.374 0-1.1563 0.76757-1.7793 2.3027-1.8691l1.8223-0.11133v-0.57422c0-0.80469-0.47656-1.207-1.4297-1.207-0.37891 0-0.69336 0.068359-0.94336 0.20508-0.25 0.13672-0.41016 0.33008-0.48047 0.58008h-1.0195c0.066407-0.50782 0.32812-0.91504 0.78516-1.2217 0.45703-0.30664 1.0215-0.45996 1.6934-0.45996 0.76954 0 1.3623 0.18652 1.7783 0.55957s0.62402 0.88769 0.62402 1.5439v4.3242h-0.96094v-0.93164h-0.09375c-0.20313 0.33594-0.47265 0.59375-0.80859 0.77344-0.33594 0.17969-0.71484 0.26953-1.1367 0.26953zm4.8633-0.11133v-6.3164h0.96094v0.99609h0.09375c0.16016-0.34766 0.39551-0.61914 0.70605-0.81445 0.31055-0.19531 0.70801-0.29297 1.1924-0.29297 0.71094 0 1.2568 0.20215 1.6377 0.60644s0.57129 0.98144 0.57129 1.7314v4.0898h-1.0078v-3.8438c0-0.57032-0.12207-0.99219-0.36621-1.2656-0.24414-0.27344-0.61816-0.41016-1.1221-0.41016-0.50391 0-0.90625 0.1582-1.207 0.47461-0.30078 0.31641-0.45117 0.75195-0.45117 1.3066v3.7383h-1.0078zm11.572 0h-1.0547v-8.4551h5.1328v0.94922h-4.0781v2.9062h3.7441v0.9375h-3.7441v3.6621zm5.6836 0v-6.3164h0.96094v0.9375h0.09375c0.093751-0.3086 0.30469-0.56055 0.63281-0.75586 0.32813-0.19531 0.70117-0.29297 1.1191-0.29297 0.082031 0 0.1709 0.002929 0.2666 0.008789 0.095704 0.005859 0.1748 0.012695 0.2373 0.020507v1.0078c-0.039063-0.011719-0.13086-0.024414-0.27539-0.038086s-0.26758-0.020508-0.36914-0.020508c-0.48047 0-0.87695 0.14453-1.1895 0.43359-0.3125 0.28906-0.46875 0.65625-0.46875 1.1016v3.9141h-1.0078zm6.5156-0.77344c0.51953 0 0.95019-0.15136 1.292-0.4541s0.5127-0.67871 0.5127-1.1279v-0.58008l-1.6992 0.11133c-0.92188 0.062501-1.3828 0.40625-1.3828 1.0312 0 0.32031 0.12109 0.57031 0.36328 0.75 0.24219 0.17969 0.54687 0.26953 0.91406 0.26953zm-0.1875 0.88477c-0.61328 0-1.1221-0.16894-1.5264-0.50684-0.4043-0.33789-0.60645-0.7959-0.60645-1.374 0-1.1563 0.76757-1.7793 2.3027-1.8691l1.8223-0.11133v-0.57422c0-0.80469-0.47656-1.207-1.4297-1.207-0.37891 0-0.69336 0.068359-0.94336 0.20508-0.25 0.13672-0.41016 0.33008-0.48047 0.58008h-1.0195c0.066407-0.50782 0.32812-0.91504 0.78516-1.2217 0.45703-0.30664 1.0215-0.45996 1.6934-0.45996 0.76954 0 1.3623 0.18652 1.7783 0.55957 0.41602 0.37305 0.62402 0.88769 0.62402 1.5439v4.3242h-0.96094v-0.93164h-0.09375c-0.20313 0.33594-0.47265 0.59375-0.80859 0.77344-0.33594 0.17969-0.71484 0.26953-1.1367 0.26953zm4.8633-0.11133v-6.3164h0.96094v0.99609h0.09375c0.16016-0.34766 0.39551-0.61914 0.70605-0.81445 0.31055-0.19531 0.70801-0.29297 1.1924-0.29297 0.71094 0 1.2568 0.20215 1.6377 0.60644 0.38086 0.4043 0.57129 0.98144 0.57129 1.7314v4.0898h-1.0078v-3.8438c0-0.57032-0.12207-0.99219-0.36621-1.2656s-0.61816-0.41016-1.1221-0.41016-0.90625 0.1582-1.207 0.47461c-0.30078 0.31641-0.45117 0.75195-0.45117 1.3066v3.7383h-1.0078zm6.8555-4.5879c0-0.52344 0.22461-0.96094 0.67383-1.3125 0.44922-0.35156 1.0098-0.52734 1.6816-0.52734 0.66406 0 1.21 0.15234 1.6377 0.45703 0.42774 0.30469 0.6748 0.71679 0.74121 1.2363h-0.99609c-0.066406-0.25391-0.21875-0.45703-0.45703-0.60938-0.23828-0.15234-0.54883-0.22852-0.93164-0.22852-0.375 0-0.6914 0.086914-0.94922 0.26074-0.25781 0.17383-0.38672 0.40136-0.38672 0.68262 0 0.21484 0.089843 0.39355 0.26953 0.53613 0.17969 0.14258 0.45508 0.25879 0.82617 0.34863l0.97266 0.23438c0.59375 0.14453 1.0361 0.35254 1.3271 0.62402 0.29102 0.27149 0.43652 0.63379 0.43652 1.0869 0 0.56641-0.24218 1.0264-0.72656 1.3799-0.48438 0.35352-1.0859 0.53027-1.8047 0.53027-0.70313 0-1.2793-0.15625-1.7285-0.46875-0.44922-0.3125-0.70117-0.73047-0.75586-1.2539h1.0371c0.085938 0.26563 0.2539 0.47754 0.50391 0.63574 0.25 0.1582 0.57617 0.2373 0.97852 0.2373 0.42578 0 0.77539-0.091796 1.0488-0.27539 0.27344-0.1836 0.41016-0.41992 0.41016-0.70898 0-0.21875-0.083007-0.40137-0.24902-0.54785-0.16602-0.14648-0.41699-0.26074-0.75293-0.34277l-1.084-0.26367c-0.58985-0.14453-1.0244-0.35156-1.3037-0.62109-0.2793-0.26953-0.41894-0.63281-0.41894-1.0898zm6.4512 4.5879v-6.3164h1.0078v6.3164h-1.0078zm0.50391-7.5996c-0.19141 0-0.35644-0.069336-0.49512-0.20801-0.13867-0.13867-0.20801-0.30371-0.20801-0.49512 0-0.19531 0.069335-0.36133 0.20801-0.49805 0.13867-0.13672 0.30371-0.20508 0.49512-0.20508 0.19531 0 0.36133 0.068358 0.49805 0.20508 0.13672 0.13672 0.20508 0.30273 0.20508 0.49805 0 0.19141-0.068359 0.35644-0.20508 0.49512-0.13672 0.13867-0.30273 0.20801-0.49805 0.20801zm2.2793 3.0117c0-0.52344 0.22461-0.96094 0.67383-1.3125 0.44922-0.35156 1.0098-0.52734 1.6816-0.52734 0.66406 0 1.21 0.15234 1.6377 0.45703 0.42774 0.30469 0.6748 0.71679 0.74121 1.2363h-0.99609c-0.066406-0.25391-0.21875-0.45703-0.45703-0.60938-0.23828-0.15234-0.54883-0.22852-0.93164-0.22852-0.375 0-0.6914 0.086914-0.94922 0.26074-0.25781 0.17383-0.38672 0.40136-0.38672 0.68262 0 0.21484 0.089843 0.39355 0.26953 0.53613 0.17969 0.14258 0.45508 0.25879 0.82617 0.34863l0.97266 0.23438c0.59375 0.14453 1.0361 0.35254 1.3271 0.62402 0.29102 0.27149 0.43652 0.63379 0.43652 1.0869 0 0.56641-0.24218 1.0264-0.72656 1.3799-0.48438 0.35352-1.0859 0.53027-1.8047 0.53027-0.70313 0-1.2793-0.15625-1.7285-0.46875-0.44922-0.3125-0.70117-0.73047-0.75586-1.2539h1.0371c0.085938 0.26563 0.2539 0.47754 0.50391 0.63574 0.25 0.1582 0.57617 0.2373 0.97852 0.2373 0.42578 0 0.77539-0.091796 1.0488-0.27539 0.27344-0.1836 0.41016-0.41992 0.41016-0.70898 0-0.21875-0.083007-0.40137-0.24902-0.54785-0.16602-0.14648-0.41699-0.26074-0.75293-0.34277l-1.084-0.26367c-0.58985-0.14453-1.0244-0.35156-1.3037-0.62109-0.2793-0.26953-0.41894-0.63281-0.41894-1.0898zm11.654 0.20508h-1.0195c-0.082031-0.3125-0.26074-0.58008-0.53613-0.80274s-0.63965-0.33398-1.0928-0.33398c-0.56641 0-1.0166 0.21094-1.3506 0.63281s-0.50098 0.99023-0.50098 1.7051c0 0.73047 0.16797 1.3105 0.50391 1.7402 0.33594 0.42969 0.78515 0.64453 1.3477 0.64453 0.42578 0 0.78027-0.095702 1.0635-0.28711 0.2832-0.19141 0.47168-0.46484 0.56543-0.82031h1.0195c-0.089844 0.57813-0.36328 1.0586-0.82031 1.4414-0.45703 0.38282-1.0644 0.57422-1.8223 0.57422-0.88282 0-1.5869-0.29785-2.1123-0.89356-0.52539-0.59571-0.78809-1.3955-0.78809-2.3994 0-0.98438 0.26172-1.7715 0.78516-2.3613 0.52344-0.58985 1.2266-0.88476 2.1094-0.88476 0.76954 0 1.3818 0.20019 1.8369 0.60059 0.45508 0.40039 0.72559 0.88183 0.81152 1.4443zm4.084 4.4941c-0.89844 0-1.6084-0.29199-2.1299-0.87598-0.52149-0.58399-0.78223-1.3818-0.78223-2.3936 0-1.0156 0.26074-1.8144 0.78223-2.3965 0.52149-0.58203 1.2314-0.87305 2.1299-0.87305s1.6084 0.29101 2.1299 0.87305c0.52149 0.58204 0.78223 1.3809 0.78223 2.3965 0 1.0117-0.26074 1.8096-0.78223 2.3936-0.52149 0.58399-1.2314 0.87598-2.1299 0.87598zm0-0.9082c0.59766 0 1.0586-0.20703 1.3828-0.62109 0.32422-0.41406 0.48633-0.99414 0.48633-1.7402 0-0.75-0.16211-1.3311-0.48633-1.7432-0.32422-0.41211-0.78515-0.61816-1.3828-0.61816s-1.0586 0.20605-1.3828 0.61816c-0.32422 0.41211-0.48633 0.99316-0.48633 1.7432 0 0.7461 0.16211 1.3262 0.48633 1.7402 0.32422 0.41406 0.78515 0.62109 1.3828 0.62109zm5.0156 2.9473h-0.75586l0.55664-3.334h1.1191l-0.91992 3.334zm9.8438-1.9512c-1.1484 0-2.0576-0.39648-2.7275-1.1895-0.66992-0.79297-1.0049-1.8711-1.0049-3.2344 0-1.3672 0.33398-2.4473 1.002-3.2402 0.66797-0.79297 1.5762-1.1895 2.7246-1.1895 0.89063 0 1.6523 0.2539 2.2852 0.76172s1.0117 1.1699 1.1367 1.9863h-1.0723c-0.14063-0.54688-0.42187-0.97949-0.84375-1.2979s-0.92382-0.47754-1.5059-0.47754c-0.8125 0-1.4561 0.31054-1.9307 0.93164-0.47461 0.6211-0.71191 1.4629-0.71191 2.5254 0 1.0586 0.23828 1.8984 0.71484 2.5195s1.1211 0.93164 1.9336 0.93164c0.58985 0 1.0947-0.1416 1.5146-0.4248 0.41992-0.2832 0.69629-0.66894 0.8291-1.1572h1.0723c-0.14063 0.77735-0.5205 1.3975-1.1396 1.8604-0.61914 0.46289-1.3779 0.69434-2.2764 0.69434zm7.002-0.97266c0.51953 0 0.95019-0.15136 1.292-0.4541 0.3418-0.30274 0.5127-0.67871 0.5127-1.1279v-0.58008l-1.6992 0.11133c-0.92188 0.062501-1.3828 0.40625-1.3828 1.0312 0 0.32031 0.12109 0.57031 0.36328 0.75 0.24219 0.17969 0.54687 0.26953 0.91406 0.26953zm-0.1875 0.88477c-0.61328 0-1.1221-0.16894-1.5264-0.50684-0.4043-0.33789-0.60644-0.7959-0.60644-1.374 0-1.1563 0.76757-1.7793 2.3027-1.8691l1.8223-0.11133v-0.57422c0-0.80469-0.47656-1.207-1.4297-1.207-0.37891 0-0.69336 0.068359-0.94336 0.20508-0.25 0.13672-0.41016 0.33008-0.48047 0.58008h-1.0195c0.066406-0.50782 0.32812-0.91504 0.78516-1.2217 0.45703-0.30664 1.0215-0.45996 1.6934-0.45996 0.76954 0 1.3623 0.18652 1.7783 0.55957s0.62402 0.88769 0.62402 1.5439v4.3242h-0.96094v-0.93164h-0.09375c-0.20313 0.33594-0.47266 0.59375-0.80859 0.77344-0.33594 0.17969-0.71484 0.26953-1.1367 0.26953zm4.9219-0.11133v-8.8242h1.0078v8.8242h-1.0078zm2.9883 0v-6.3164h1.0078v6.3164h-1.0078zm0.50391-7.5996c-0.19141 0-0.35644-0.069336-0.49512-0.20801-0.13867-0.13867-0.20801-0.30371-0.20801-0.49512 0-0.19531 0.069335-0.36133 0.20801-0.49805 0.13867-0.13672 0.30371-0.20508 0.49512-0.20508 0.19531 0 0.36133 0.068358 0.49805 0.20508 0.13672 0.13672 0.20508 0.30273 0.20508 0.49805 0 0.19141-0.068359 0.35644-0.20508 0.49512-0.13672 0.13867-0.30273 0.20801-0.49805 0.20801zm2.8477 7.5996v-5.4727h-1.0488v-0.84375h1.0488v-0.70312c0-0.62891 0.15527-1.0967 0.46582-1.4033 0.31055-0.30664 0.7666-0.45996 1.3682-0.45996 0.125 0 0.24316 0.004882 0.35449 0.014648 0.11133 0.009766 0.21973 0.024414 0.3252 0.043945v0.82031c-0.0625-0.011719-0.13476-0.019531-0.2168-0.023438-0.082032-0.003906-0.16797-0.005859-0.25781-0.005859-0.36328 0-0.62598 0.086913-0.78809 0.26074-0.16211 0.17383-0.24316 0.43457-0.24316 0.78223v0.67383h1.4473v0.84375h-1.4473v5.4727h-1.0078zm6.252 0.11133c-0.89844 0-1.6084-0.29199-2.1299-0.87598-0.52149-0.58399-0.78223-1.3818-0.78223-2.3936 0-1.0156 0.26074-1.8144 0.78223-2.3965 0.52149-0.58203 1.2314-0.87305 2.1299-0.87305s1.6084 0.29101 2.1299 0.87305c0.52149 0.58204 0.78223 1.3809 0.78223 2.3965 0 1.0117-0.26074 1.8096-0.78223 2.3936-0.52149 0.58399-1.2314 0.87598-2.1299 0.87598zm0-0.9082c0.59766 0 1.0586-0.20703 1.3828-0.62109 0.32422-0.41406 0.48633-0.99414 0.48633-1.7402 0-0.75-0.16211-1.3311-0.48633-1.7432-0.32422-0.41211-0.78515-0.61816-1.3828-0.61816s-1.0586 0.20605-1.3828 0.61816c-0.32422 0.41211-0.48633 0.99316-0.48633 1.7432 0 0.7461 0.16211 1.3262 0.48633 1.7402 0.32422 0.41406 0.78515 0.62109 1.3828 0.62109zm4.4941 0.79688v-6.3164h0.96094v0.9375h0.09375c0.093751-0.3086 0.30469-0.56055 0.63281-0.75586 0.32813-0.19531 0.70117-0.29297 1.1191-0.29297 0.082032 0 0.1709 0.002929 0.2666 0.008789 0.095704 0.005859 0.1748 0.012695 0.2373 0.020507v1.0078c-0.039063-0.011719-0.13086-0.024414-0.27539-0.038086s-0.26758-0.020508-0.36914-0.020508c-0.48047 0-0.87695 0.14453-1.1895 0.43359-0.3125 0.28906-0.46875 0.65625-0.46875 1.1016v3.9141h-1.0078zm4.6875 0v-6.3164h0.96094v0.99609h0.09375c0.16016-0.34766 0.39551-0.61914 0.70606-0.81445 0.31055-0.19531 0.708-0.29297 1.1924-0.29297 0.71094 0 1.2568 0.20215 1.6377 0.60644s0.57129 0.98144 0.57129 1.7314v4.0898h-1.0078v-3.8438c0-0.57032-0.12207-0.99219-0.36621-1.2656s-0.61816-0.41016-1.1221-0.41016c-0.50391 0-0.90625 0.1582-1.207 0.47461s-0.45117 0.75195-0.45117 1.3066v3.7383h-1.0078zm7.0254 0v-6.3164h1.0078v6.3164h-1.0078zm0.50391-7.5996c-0.19141 0-0.35644-0.069336-0.49512-0.20801-0.13867-0.13867-0.20801-0.30371-0.20801-0.49512 0-0.19531 0.069335-0.36133 0.20801-0.49805 0.13867-0.13672 0.30371-0.20508 0.49512-0.20508 0.19531 0 0.36133 0.068358 0.49805 0.20508 0.13672 0.13672 0.20508 0.30273 0.20508 0.49805 0 0.19141-0.068359 0.35644-0.20508 0.49512-0.13672 0.13867-0.30273 0.20801-0.49805 0.20801zm4.3711 6.8262c0.51953 0 0.95019-0.15136 1.292-0.4541 0.3418-0.30274 0.5127-0.67871 0.5127-1.1279v-0.58008l-1.6992 0.11133c-0.92188 0.062501-1.3828 0.40625-1.3828 1.0312 0 0.32031 0.12109 0.57031 0.36328 0.75 0.24219 0.17969 0.54687 0.26953 0.91406 0.26953zm-0.1875 0.88477c-0.61328 0-1.1221-0.16894-1.5264-0.50684-0.4043-0.33789-0.60644-0.7959-0.60644-1.374 0-1.1563 0.76757-1.7793 2.3027-1.8691l1.8223-0.11133v-0.57422c0-0.80469-0.47656-1.207-1.4297-1.207-0.37891 0-0.69336 0.068359-0.94336 0.20508-0.25 0.13672-0.41016 0.33008-0.48047 0.58008h-1.0195c0.066407-0.50782 0.32812-0.91504 0.78516-1.2217 0.45703-0.30664 1.0215-0.45996 1.6934-0.45996 0.76954 0 1.3623 0.18652 1.7783 0.55957s0.62402 0.88769 0.62402 1.5439v4.3242h-0.96094v-0.93164h-0.09375c-0.20313 0.33594-0.47266 0.59375-0.80859 0.77344-0.33594 0.17969-0.71484 0.26953-1.1367 0.26953z" fill="#fff" mask="url(#a)"/>
<path d="m21.072 228.54h3.1934c0.80079 0 1.4521 0.25488 1.9541 0.76465 0.50196 0.50977 0.75293 1.167 0.75293 1.9717 0 0.78907-0.25488 1.4365-0.76465 1.9424s-1.1611 0.75879-1.9541 0.75879h-2.127v3.0176h-1.0547v-8.4551zm1.0547 0.9375v3.5625h1.8633c0.60157 0 1.0684-0.1543 1.4004-0.46289 0.33203-0.3086 0.49805-0.74218 0.49805-1.3008 0-0.58203-0.16308-1.0273-0.48926-1.3359-0.32617-0.3086-0.7959-0.46289-1.4092-0.46289h-1.8633zm6.498 7.5176v-8.8242h1.0078v3.5039h0.09375c0.16016-0.34766 0.40332-0.61914 0.72949-0.81445 0.32617-0.19531 0.73144-0.29297 1.2158-0.29297 0.66797 0 1.1982 0.2041 1.5908 0.6123s0.58887 0.9834 0.58887 1.7256v4.0898h-1.0078v-3.8438c0-0.5586-0.12402-0.97754-0.37207-1.2568s-0.61035-0.41894-1.0869-0.41894c-0.56641 0-1 0.16308-1.3008 0.48926-0.30078 0.32617-0.45117 0.75683-0.45117 1.292v3.7383h-1.0078zm9.6621 0.11133c-0.89844 0-1.6084-0.29199-2.1299-0.87598-0.52149-0.58399-0.78223-1.3818-0.78223-2.3936 0-1.0156 0.26074-1.8144 0.78223-2.3965 0.52149-0.58203 1.2314-0.87305 2.1299-0.87305s1.6084 0.29101 2.1299 0.87305c0.52149 0.58204 0.78223 1.3809 0.78223 2.3965 0 1.0117-0.26074 1.8096-0.78223 2.3936-0.52149 0.58399-1.2314 0.87598-2.1299 0.87598zm0-0.9082c0.59766 0 1.0586-0.20703 1.3828-0.62109 0.32422-0.41406 0.48633-0.99414 0.48633-1.7402 0-0.75-0.16211-1.3311-0.48633-1.7432-0.32422-0.41211-0.78515-0.61816-1.3828-0.61816-0.59766 0-1.0586 0.20605-1.3828 0.61816-0.32422 0.41211-0.48633 0.99316-0.48633 1.7432 0 0.7461 0.16211 1.3262 0.48633 1.7402 0.32422 0.41406 0.78515 0.62109 1.3828 0.62109zm4.4941 0.79688v-6.3164h0.96094v0.99609h0.09375c0.16016-0.34766 0.39551-0.61914 0.70605-0.81445 0.31055-0.19531 0.70801-0.29297 1.1924-0.29297 0.71094 0 1.2568 0.20215 1.6377 0.60644s0.57129 0.98144 0.57129 1.7314v4.0898h-1.0078v-3.8438c0-0.57032-0.12207-0.99219-0.36621-1.2656-0.24414-0.27344-0.61816-0.41016-1.1221-0.41016-0.50391 0-0.90625 0.1582-1.207 0.47461-0.30078 0.31641-0.45117 0.75195-0.45117 1.3066v3.7383h-1.0078zm9.5215-5.5371c-0.50391 0-0.91797 0.16992-1.2422 0.50976-0.32422 0.33985-0.50586 0.78906-0.54492 1.3477h3.4805c-0.011719-0.5586-0.17187-1.0078-0.48047-1.3477-0.3086-0.33984-0.71289-0.50976-1.2129-0.50976zm1.6641 3.9023h1.0078c-0.15234 0.54297-0.46094 0.96972-0.92578 1.2803-0.46485 0.31055-1.043 0.46582-1.7344 0.46582-0.875 0-1.5684-0.29394-2.0801-0.88184-0.51172-0.58789-0.76758-1.3818-0.76758-2.3818 0-0.99219 0.25781-1.7861 0.77344-2.3818s1.207-0.89355 2.0742-0.89355c0.85157 0 1.5215 0.28418 2.0098 0.85254 0.48828 0.56836 0.73242 1.3428 0.73242 2.3232v0.38672h-4.541v0.046875c0.027344 0.625 0.2041 1.1211 0.53027 1.4883s0.75683 0.55078 1.292 0.55078c0.40625 0 0.74609-0.073241 1.0195-0.21973 0.27344-0.14649 0.47656-0.3584 0.60938-0.63574z" fill="#fff" mask="url(#a)"/>
<path d="m86.799 233.48c0-1.0547 0.13672-2.0176 0.41016-2.8887 0.27344-0.8711 0.6914-1.6777 1.2539-2.4199h0.85547c-0.41406 0.53125-0.76465 1.3008-1.0518 2.3086s-0.43066 2.0078-0.43066 3c0 0.9961 0.14258 1.998 0.42773 3.0059 0.28516 1.0078 0.63672 1.7773 1.0547 2.3086h-0.85547c-0.5625-0.74219-0.98047-1.5488-1.2539-2.4199-0.27344-0.8711-0.41016-1.8359-0.41016-2.8945zm7.9688 3.5156v-1.752h-4.1191v-0.96094c0.1875-0.33594 0.41016-0.71679 0.66797-1.1426 0.25781-0.42578 0.54297-0.88476 0.85547-1.377s0.64551-1.0098 0.99902-1.5527c0.35352-0.54297 0.71972-1.0996 1.0986-1.6699h1.5293v5.7598h1.2012v0.94336h-1.2012v1.752h-1.0312zm-3.041-2.7598v0.070313h3.0469v-4.7871h-0.070312c-0.21484 0.31641-0.44336 0.65918-0.68555 1.0283-0.24219 0.36914-0.49219 0.75586-0.75 1.1602s-0.51562 0.81933-0.77344 1.2451c-0.25781 0.42578-0.51367 0.85351-0.76758 1.2832zm8.8066 2.7598v-7.2832h-0.09375l-0.3252 0.23438c-0.2168 0.15625-0.4668 0.33789-0.75 0.54492-0.2832 0.20703-0.5332 0.38867-0.75 0.54492l-0.3252 0.23438v-1.1133l0.33984-0.24316c0.22656-0.16211 0.48828-0.35058 0.78516-0.56543 0.29688-0.21484 0.55859-0.40332 0.78516-0.56543l0.33984-0.24316h1.0488v8.4551h-1.0547zm6.3633 0.19922c-0.80078 0-1.4629-0.22558-1.9863-0.67676s-0.80859-1.042-0.85547-1.7725h1.0371c0.046875 0.45703 0.2373 0.82519 0.57129 1.1045s0.74902 0.41895 1.2451 0.41895c0.56641 0 1.0225-0.17773 1.3682-0.5332 0.3457-0.35547 0.51856-0.82226 0.51856-1.4004 0-0.58203-0.17285-1.0527-0.51856-1.4121-0.3457-0.35938-0.7959-0.53906-1.3506-0.53906-0.38281 0-0.72656 0.083007-1.0312 0.24902-0.30469 0.16602-0.54297 0.39941-0.71484 0.7002h-0.99024l0.46289-4.793h4.7168v0.94336h-3.8906l-0.24024 2.7129h0.09375c0.20703-0.24219 0.45898-0.42285 0.75586-0.54199 0.29688-0.11914 0.64062-0.17871 1.0312-0.17871 0.80469 0 1.4609 0.26367 1.9688 0.79102 0.50782 0.52735 0.76172 1.207 0.76172 2.0391 0 0.85938-0.27343 1.5557-0.82031 2.0889s-1.2578 0.7998-2.1328 0.7998zm6.8555-3.7148c0 1.0586-0.13672 2.0234-0.41016 2.8945s-0.6914 1.6777-1.2539 2.4199h-0.85547c0.41797-0.53125 0.76953-1.3008 1.0547-2.3086 0.28516-1.0078 0.42774-2.0098 0.42774-3.0059 0-0.99219-0.14258-1.9922-0.42774-3-0.28516-1.0078-0.63672-1.7773-1.0547-2.3086h0.85547c0.5625 0.74219 0.98047 1.5488 1.2539 2.4199s0.41016 1.834 0.41016 2.8887zm8.6367 3.7148c-0.89454 0-1.626-0.22949-2.1943-0.68848-0.56836-0.45899-0.85254-1.0498-0.85254-1.7725 0-0.55078 0.16016-1.0234 0.48047-1.418 0.32031-0.39453 0.74609-0.64062 1.2773-0.73828v-0.09375c-0.42969-0.11719-0.77246-0.3457-1.0283-0.68555-0.25586-0.33984-0.38379-0.74023-0.38379-1.2012 0-0.66016 0.25293-1.2012 0.75879-1.623s1.1533-0.63281 1.9424-0.63281c0.79297 0 1.4414 0.21094 1.9453 0.63281 0.50391 0.42188 0.75586 0.96289 0.75586 1.623 0 0.46094-0.12598 0.86035-0.37793 1.1982-0.25195 0.33789-0.59668 0.56738-1.0342 0.68848v0.09375c0.53125 0.097657 0.95703 0.34375 1.2773 0.73828 0.32031 0.39453 0.48047 0.86718 0.48047 1.418 0 0.72266-0.2832 1.3135-0.84961 1.7725-0.56641 0.45899-1.2988 0.68848-2.1973 0.68848zm0-0.90234c0.58594 0 1.0625-0.15137 1.4297-0.4541 0.36719-0.30274 0.55078-0.69629 0.55078-1.1807 0-0.48438-0.18359-0.87793-0.55078-1.1807-0.36719-0.30274-0.84375-0.4541-1.4297-0.4541-0.58594 0-1.0625 0.15136-1.4297 0.4541-0.36719 0.30274-0.55078 0.69629-0.55078 1.1807 0 0.48438 0.18359 0.87793 0.55078 1.1807 0.36719 0.30274 0.84375 0.4541 1.4297 0.4541zm0-4.1602c0.5 0 0.90234-0.13184 1.207-0.39551s0.45703-0.61035 0.45703-1.04c0-0.4375-0.15234-0.78906-0.45703-1.0547-0.30469-0.26563-0.70703-0.39844-1.207-0.39844-0.5 0-0.90234 0.13281-1.207 0.39844-0.30469 0.26563-0.45703 0.61719-0.45703 1.0547 0 0.42969 0.15332 0.77637 0.45996 1.04s0.70801 0.39551 1.2041 0.39551zm7.7637 5.0566c-1.3047 0-2.2285-0.64062-2.7715-1.9219-0.27344-0.64063-0.41016-1.4258-0.41016-2.3555 0-1.4531 0.2832-2.5781 0.84961-3.375 0.56641-0.79688 1.3672-1.1953 2.4023-1.1953 0.71875 0 1.3271 0.19824 1.8252 0.59473 0.49805 0.39649 0.81348 0.93457 0.94629 1.6143h-1.084c-0.11328-0.39453-0.32031-0.70508-0.62109-0.93164-0.30078-0.22656-0.66015-0.33984-1.0781-0.33984-0.6875 0-1.2207 0.29687-1.5996 0.89062s-0.58398 1.4531-0.61523 2.5781h0.09375c0.20703-0.41016 0.50781-0.72949 0.90234-0.95801 0.39453-0.22852 0.84375-0.34277 1.3477-0.34277 0.80469 0 1.4687 0.2666 1.9922 0.7998 0.52344 0.5332 0.78516 1.21 0.78516 2.0303 0 0.84766-0.27734 1.5449-0.83203 2.0918-0.55469 0.54688-1.2656 0.82031-2.1328 0.82031zm-0.011719-0.92578c0.54297 0 0.99707-0.18652 1.3623-0.55957 0.36524-0.37305 0.54785-0.83691 0.54785-1.3916 0-0.57813-0.17676-1.0478-0.53027-1.4092-0.35352-0.36133-0.80957-0.54199-1.3682-0.54199-0.5586 0-1.0186 0.17969-1.3799 0.53906s-0.54199 0.81836-0.54199 1.377c0 0.56641 0.18262 1.0391 0.54785 1.418 0.36524 0.37891 0.81933 0.56836 1.3623 0.56836zm6.3984-3.1641v-0.90234h1.0254c0.48047 0 0.87402-0.14062 1.1807-0.42188 0.30664-0.28125 0.45996-0.64062 0.45996-1.0781 0-0.42969-0.14844-0.77637-0.44531-1.04-0.29688-0.26367-0.68945-0.39551-1.1777-0.39551-0.48438 0-0.87793 0.12793-1.1807 0.38379s-0.47559 0.61035-0.51856 1.0635h-1.0254c0.054688-0.73438 0.32812-1.3125 0.82031-1.7344s1.1406-0.63281 1.9453-0.63281c0.73828 0 1.3652 0.21484 1.8809 0.64453 0.51563 0.42969 0.77344 0.95312 0.77344 1.5703 0 0.50391-0.13086 0.92969-0.39258 1.2773s-0.625 0.57812-1.0898 0.69141v0.09375c0.57422 0.074219 1.0254 0.29785 1.3535 0.6709 0.32813 0.37305 0.49219 0.84863 0.49219 1.4268 0 0.69532-0.28711 1.2822-0.86133 1.7607-0.57422 0.47852-1.2793 0.71777-2.1152 0.71777-0.85938 0-1.5605-0.21972-2.1035-0.65918-0.54297-0.43946-0.83398-1.0205-0.87305-1.7432h1.0195c0.046875 0.44922 0.24707 0.80859 0.60059 1.0781 0.35352 0.26953 0.80176 0.4043 1.3447 0.4043 0.5586 0 1.0156-0.14941 1.3711-0.44824 0.35547-0.29883 0.5332-0.67871 0.5332-1.1396 0-0.48828-0.17383-0.875-0.52148-1.1602s-0.82226-0.42773-1.4238-0.42773h-1.0723zm9.6035 0.97266h-3.8438v-0.95508h3.8438v0.95508zm4.7402 3.123c-0.89454 0-1.626-0.22949-2.1943-0.68848-0.56836-0.45899-0.85254-1.0498-0.85254-1.7725 0-0.55078 0.16015-1.0234 0.48047-1.418 0.32031-0.39453 0.74609-0.64062 1.2773-0.73828v-0.09375c-0.42969-0.11719-0.77246-0.3457-1.0283-0.68555-0.25586-0.33984-0.38379-0.74023-0.38379-1.2012 0-0.66016 0.25293-1.2012 0.75879-1.623s1.1533-0.63281 1.9424-0.63281c0.79297 0 1.4414 0.21094 1.9453 0.63281s0.75586 0.96289 0.75586 1.623c0 0.46094-0.12598 0.86035-0.37793 1.1982-0.25196 0.33789-0.59668 0.56738-1.0342 0.68848v0.09375c0.53125 0.097657 0.95703 0.34375 1.2773 0.73828 0.32031 0.39453 0.48047 0.86718 0.48047 1.418 0 0.72266-0.2832 1.3135-0.84961 1.7725-0.56641 0.45899-1.2988 0.68848-2.1973 0.68848zm0-0.90234c0.58594 0 1.0625-0.15137 1.4297-0.4541 0.36719-0.30274 0.55078-0.69629 0.55078-1.1807 0-0.48438-0.18359-0.87793-0.55078-1.1807s-0.84375-0.4541-1.4297-0.4541c-0.58594 0-1.0625 0.15136-1.4297 0.4541s-0.55078 0.69629-0.55078 1.1807c0 0.48438 0.18359 0.87793 0.55078 1.1807 0.36719 0.30274 0.84375 0.4541 1.4297 0.4541zm0-4.1602c0.5 0 0.90234-0.13184 1.207-0.39551s0.45703-0.61035 0.45703-1.04c0-0.4375-0.15234-0.78906-0.45703-1.0547-0.30469-0.26563-0.70703-0.39844-1.207-0.39844-0.5 0-0.90234 0.13281-1.207 0.39844-0.30469 0.26563-0.45703 0.61719-0.45703 1.0547 0 0.42969 0.15332 0.77637 0.45996 1.04s0.708 0.39551 1.2041 0.39551zm7.5645 5.0625c-0.80079 0-1.4629-0.22558-1.9863-0.67676-0.52344-0.45117-0.80859-1.042-0.85547-1.7725h1.0371c0.046875 0.45703 0.2373 0.82519 0.57129 1.1045s0.74902 0.41895 1.2451 0.41895c0.56641 0 1.0225-0.17773 1.3682-0.5332 0.3457-0.35547 0.51856-0.82226 0.51856-1.4004 0-0.58203-0.17285-1.0527-0.51856-1.4121-0.3457-0.35938-0.7959-0.53906-1.3506-0.53906-0.38281 0-0.72656 0.083007-1.0312 0.24902-0.30469 0.16602-0.54297 0.39941-0.71484 0.7002h-0.99024l0.46289-4.793h4.7168v0.94336h-3.8906l-0.24024 2.7129h0.09375c0.20703-0.24219 0.45898-0.42285 0.75586-0.54199 0.29688-0.11914 0.64062-0.17871 1.0312-0.17871 0.80469 0 1.4609 0.26367 1.9688 0.79102 0.50782 0.52735 0.76172 1.207 0.76172 2.0391 0 0.85938-0.27344 1.5557-0.82031 2.0889s-1.2578 0.7998-2.1328 0.7998zm8.4961-0.19922v-1.752h-4.1191v-0.96094c0.1875-0.33594 0.41016-0.71679 0.66797-1.1426 0.25781-0.42578 0.54297-0.88476 0.85547-1.377 0.3125-0.49219 0.64551-1.0098 0.99902-1.5527 0.35352-0.54297 0.71972-1.0996 1.0986-1.6699h1.5293v5.7598h1.2012v0.94336h-1.2012v1.752h-1.0312zm-3.041-2.7598v0.070313h3.0469v-4.7871h-0.070313c-0.21484 0.31641-0.44336 0.65918-0.68555 1.0283-0.24219 0.36914-0.49219 0.75586-0.75 1.1602-0.25781 0.4043-0.51562 0.81933-0.77344 1.2451-0.25781 0.42578-0.51367 0.85351-0.76758 1.2832zm9.8906 2.9531c-1.3047 0-2.2285-0.64062-2.7715-1.9219-0.27344-0.64063-0.41016-1.4258-0.41016-2.3555 0-1.4531 0.2832-2.5781 0.84961-3.375 0.56641-0.79688 1.3672-1.1953 2.4023-1.1953 0.71875 0 1.3271 0.19824 1.8252 0.59473 0.49805 0.39649 0.81348 0.93457 0.94629 1.6143h-1.084c-0.11328-0.39453-0.32031-0.70508-0.62109-0.93164-0.30078-0.22656-0.66016-0.33984-1.0781-0.33984-0.6875 0-1.2207 0.29687-1.5996 0.89062s-0.58398 1.4531-0.61523 2.5781h0.09375c0.20703-0.41016 0.50781-0.72949 0.90234-0.95801 0.39453-0.22852 0.84375-0.34277 1.3477-0.34277 0.80469 0 1.4687 0.2666 1.9922 0.7998 0.52344 0.5332 0.78516 1.21 0.78516 2.0303 0 0.84766-0.27734 1.5449-0.83203 2.0918-0.55469 0.54688-1.2656 0.82031-2.1328 0.82031zm-0.011719-0.92578c0.54297 0 0.99707-0.18652 1.3623-0.55957 0.36524-0.37305 0.54785-0.83691 0.54785-1.3916 0-0.57813-0.17676-1.0478-0.53027-1.4092-0.35352-0.36133-0.80957-0.54199-1.3682-0.54199-0.5586 0-1.0186 0.17969-1.3799 0.53906s-0.54199 0.81836-0.54199 1.377c0 0.56641 0.18262 1.0391 0.54785 1.418 0.36524 0.37891 0.81933 0.56836 1.3623 0.56836z" fill="#fff" mask="url(#a)"/>
<path d="m28.273 174.73v1.2656h-6.8438v-11.273h1.4062v10.008h5.4375zm8.5703-7.1562v8.4219h-1.2812v-1.3203h-0.125c-0.20833 0.46875-0.53385 0.83073-0.97656 1.0859s-0.98698 0.38281-1.6328 0.38281c-0.94271 0-1.6575-0.27083-2.1445-0.8125-0.48698-0.54167-0.73047-1.3099-0.73047-2.3047v-5.4531h1.3438v5.125c0 0.75521 0.14974 1.3138 0.44922 1.6758 0.29948 0.36198 0.78515 0.54297 1.457 0.54297 0.7448 0 1.3138-0.20833 1.707-0.625 0.39323-0.41667 0.58984-0.99479 0.58984-1.7344v-4.9844h1.3438zm2.0234 2.3047c0-0.69792 0.29948-1.2812 0.89844-1.75 0.59896-0.46875 1.3463-0.70312 2.2422-0.70312 0.88542 0 1.6133 0.20312 2.1836 0.60937 0.57032 0.40625 0.89974 0.95573 0.98828 1.6484h-1.3281c-0.088542-0.33854-0.29167-0.60937-0.60938-0.8125s-0.73177-0.30469-1.2422-0.30469c-0.5 0-0.92187 0.11588-1.2656 0.34766s-0.51562 0.53515-0.51562 0.91016c0 0.28646 0.11979 0.52474 0.35938 0.71484s0.60677 0.34505 1.1016 0.46484l1.2969 0.3125c0.79167 0.19271 1.3815 0.47005 1.7695 0.83203 0.38802 0.36198 0.58203 0.84505 0.58203 1.4492 0 0.75521-0.32291 1.3685-0.96875 1.8398-0.64584 0.47136-1.4479 0.70703-2.4062 0.70703-0.9375 0-1.7057-0.20833-2.3047-0.625-0.59896-0.41667-0.9349-0.97396-1.0078-1.6719h1.3828c0.11458 0.35417 0.33854 0.63672 0.67188 0.84766 0.33334 0.21094 0.76823 0.31641 1.3047 0.31641 0.56771 0 1.0339-0.1224 1.3984-0.36719 0.36459-0.24479 0.54688-0.55989 0.54688-0.94531 0-0.29167-0.11068-0.53516-0.33203-0.73047-0.22136-0.19531-0.55599-0.34766-1.0039-0.45703l-1.4453-0.35156c-0.78646-0.19271-1.3659-0.46875-1.7383-0.82812-0.3724-0.35938-0.55859-0.84375-0.55859-1.4531zm8.3359 6.1172v-11.766h1.3438v4.6719h0.125c0.21354-0.46354 0.53776-0.82552 0.97266-1.0859 0.4349-0.26042 0.97526-0.39062 1.6211-0.39062 0.89063 0 1.5977 0.27213 2.1211 0.81641 0.52344 0.54427 0.78516 1.3112 0.78516 2.3008v5.4531h-1.3438v-5.125c0-0.7448-0.16536-1.3034-0.49609-1.6758-0.33073-0.3724-0.8138-0.55859-1.4492-0.55859-0.75521 0-1.3333 0.21745-1.7344 0.65234s-0.60156 1.0091-0.60156 1.7227v4.9844h-1.3438zm11.703-1.0312c0.69271 0 1.2669-0.20182 1.7227-0.60547 0.45573-0.40365 0.68359-0.90494 0.68359-1.5039v-0.77344l-2.2656 0.14844c-1.2292 0.083334-1.8438 0.54166-1.8438 1.375 0 0.42708 0.16146 0.76042 0.48438 1s0.72916 0.35938 1.2188 0.35938zm-0.25 1.1797c-0.81771 0-1.4961-0.22526-2.0352-0.67578-0.53907-0.45052-0.80859-1.0612-0.80859-1.832 0-1.5417 1.0234-2.3724 3.0703-2.4922l2.4297-0.14844v-0.76562c0-1.0729-0.63541-1.6094-1.9062-1.6094-0.50521 0-0.92448 0.091145-1.2578 0.27344-0.33334 0.18229-0.54687 0.4401-0.64062 0.77344h-1.3594c0.088542-0.67709 0.4375-1.22 1.0469-1.6289s1.362-0.61328 2.2578-0.61328c1.026 0 1.8164 0.2487 2.3711 0.74609 0.55469 0.4974 0.83203 1.1836 0.83203 2.0586v5.7656h-1.2812v-1.2422h-0.125c-0.27083 0.44792-0.63021 0.79167-1.0781 1.0312-0.44792 0.23958-0.95312 0.35938-1.5156 0.35938zm11.953-0.14844h-1.4062v-11.273h1.4062v11.273zm2.3906 0v-8.4219h1.2812v1.3281h0.125c0.21354-0.46354 0.52734-0.82552 0.94141-1.0859 0.41406-0.26042 0.94401-0.39062 1.5898-0.39062 0.94792 0 1.6758 0.26953 2.1836 0.80859 0.50782 0.53906 0.76172 1.3086 0.76172 2.3086v5.4531h-1.3438v-5.125c0-0.76042-0.16276-1.3229-0.48828-1.6875-0.32552-0.36458-0.82422-0.54688-1.4961-0.54688s-1.2083 0.21094-1.6094 0.63281c-0.40104 0.42188-0.60156 1.0026-0.60156 1.7422v4.9844h-1.3438zm8.8281-6.1172c0-0.69792 0.29948-1.2812 0.89844-1.75 0.59896-0.46875 1.3463-0.70312 2.2422-0.70312 0.88542 0 1.6133 0.20312 2.1836 0.60937 0.57032 0.40625 0.89974 0.95573 0.98828 1.6484h-1.3281c-0.088542-0.33854-0.29167-0.60937-0.60938-0.8125s-0.73177-0.30469-1.2422-0.30469c-0.5 0-0.92187 0.11588-1.2656 0.34766s-0.51562 0.53515-0.51562 0.91016c0 0.28646 0.11979 0.52474 0.35938 0.71484s0.60677 0.34505 1.1016 0.46484l1.2969 0.3125c0.79167 0.19271 1.3815 0.47005 1.7695 0.83203 0.38802 0.36198 0.58203 0.84505 0.58203 1.4492 0 0.75521-0.32291 1.3685-0.96875 1.8398-0.64584 0.47136-1.4479 0.70703-2.4062 0.70703-0.9375 0-1.7057-0.20833-2.3047-0.625-0.59896-0.41667-0.9349-0.97396-1.0078-1.6719h1.3828c0.11458 0.35417 0.33854 0.63672 0.67188 0.84766 0.33334 0.21094 0.76823 0.31641 1.3047 0.31641 0.56771 0 1.0339-0.1224 1.3984-0.36719 0.36459-0.24479 0.54688-0.55989 0.54688-0.94531 0-0.29167-0.11068-0.53516-0.33203-0.73047-0.22136-0.19531-0.55599-0.34766-1.0039-0.45703l-1.4453-0.35156c-0.78646-0.19271-1.3659-0.46875-1.7383-0.82812-0.3724-0.35938-0.55859-0.84375-0.55859-1.4531zm8.2891 6.1172v-8.4219h1.3438v8.4219h-1.3438zm0.67188-10.133c-0.25521 0-0.47526-0.092447-0.66016-0.27734-0.1849-0.1849-0.27734-0.40495-0.27734-0.66016 0-0.26042 0.092447-0.48177 0.27734-0.66406 0.1849-0.18229 0.40495-0.27344 0.66016-0.27344 0.26042 0 0.48177 0.091144 0.66406 0.27344s0.27344 0.40364 0.27344 0.66406c0 0.25521-0.091145 0.47526-0.27344 0.66016s-0.40364 0.27734-0.66406 0.27734zm6.3281 8.8203c0.78125 0 1.3932-0.27474 1.8359-0.82422s0.66406-1.2825 0.66406-2.1992c0-0.91667-0.22265-1.6497-0.66797-2.1992-0.44531-0.54948-1.056-0.82422-1.832-0.82422-0.78125 0-1.3828 0.27474-1.8047 0.82422s-0.63281 1.2825-0.63281 2.1992c0 0.91667 0.21094 1.6497 0.63281 2.1992s1.0234 0.82422 1.8047 0.82422zm0.0625 4.5469c-1.0156 0-1.832-0.20963-2.4492-0.62891-0.61719-0.41927-0.97786-0.97786-1.082-1.6758h1.4219c0.072917 0.34375 0.29166 0.61849 0.65625 0.82422s0.84896 0.30859 1.4531 0.30859c0.75521 0 1.345-0.17578 1.7695-0.52734 0.42448-0.35156 0.63672-0.83724 0.63672-1.457v-1.6562h-0.125c-0.26563 0.46354-0.6276 0.82161-1.0859 1.0742-0.45834 0.2526-0.97656 0.37891-1.5547 0.37891-1.0885 0-1.9492-0.38672-2.582-1.1602-0.63282-0.77344-0.94922-1.7904-0.94922-3.0508 0-1.2604 0.31771-2.2812 0.95312-3.0625 0.63542-0.78125 1.4948-1.1719 2.5781-1.1719 0.58854 0 1.1263 0.13411 1.6133 0.40234 0.48698 0.26823 0.85026 0.6289 1.0898 1.082h0.125v-1.3359h1.2813v8.5703c0 0.94271-0.33724 1.6927-1.0117 2.25-0.67448 0.55729-1.5872 0.83594-2.7383 0.83594zm6.0469-3.2344v-11.766h1.3438v4.6719h0.125c0.21354-0.46354 0.53776-0.82552 0.97266-1.0859 0.4349-0.26042 0.97526-0.39062 1.6211-0.39062 0.89063 0 1.5977 0.27213 2.1211 0.81641 0.52344 0.54427 0.78516 1.3112 0.78516 2.3008v5.4531h-1.3438v-5.125c0-0.7448-0.16536-1.3034-0.49609-1.6758-0.33073-0.3724-0.8138-0.55859-1.4492-0.55859-0.75521 0-1.3333 0.21745-1.7344 0.65234s-0.60156 1.0091-0.60156 1.7227v4.9844h-1.3438zm9.6719-10.602h1.3438v2.1797h1.875v1.125h-1.875v4.7656c0 0.49479 0.098957 0.85417 0.29687 1.0781 0.19792 0.22396 0.51562 0.33594 0.95313 0.33594 0.11979 0 0.22266-0.002604 0.30859-0.007812s0.19141-0.013021 0.31641-0.023438v1.1328c-0.13021 0.026042-0.26042 0.045573-0.39063 0.058594-0.13021 0.013021-0.26302 0.019531-0.39844 0.019531-0.86459 0-1.4857-0.17448-1.8633-0.52344-0.37761-0.34896-0.56641-0.92448-0.56641-1.7266v-5.1094h-1.3594v-1.125h1.3594v-2.1797zm4.5859 4.4844c0-0.69792 0.29948-1.2812 0.89844-1.75 0.59896-0.46875 1.3464-0.70312 2.2422-0.70312 0.88542 0 1.6133 0.20312 2.1836 0.60937 0.57032 0.40625 0.89974 0.95573 0.98828 1.6484h-1.3281c-0.088542-0.33854-0.29166-0.60937-0.60938-0.8125s-0.73177-0.30469-1.2422-0.30469c-0.5 0-0.92187 0.11588-1.2656 0.34766-0.34375 0.23177-0.51562 0.53515-0.51562 0.91016 0 0.28646 0.11979 0.52474 0.35937 0.71484 0.23958 0.1901 0.60677 0.34505 1.1016 0.46484l1.2969 0.3125c0.79167 0.19271 1.3815 0.47005 1.7695 0.83203s0.58203 0.84505 0.58203 1.4492c0 0.75521-0.32291 1.3685-0.96875 1.8398-0.64584 0.47136-1.4479 0.70703-2.4062 0.70703-0.9375 0-1.7057-0.20833-2.3047-0.625-0.59896-0.41667-0.9349-0.97396-1.0078-1.6719h1.3828c0.11458 0.35417 0.33854 0.63672 0.67188 0.84766 0.33334 0.21094 0.76823 0.31641 1.3047 0.31641 0.56771 0 1.0339-0.1224 1.3984-0.36719 0.36458-0.24479 0.54688-0.55989 0.54688-0.94531 0-0.29167-0.11068-0.53516-0.33203-0.73047-0.22136-0.19531-0.55599-0.34766-1.0039-0.45703l-1.4453-0.35156c-0.78646-0.19271-1.3659-0.46875-1.7383-0.82812-0.3724-0.35938-0.55859-0.84375-0.55859-1.4531z" fill="#fff" mask="url(#a)"/>
<path d="m82.551 76v-8.5898h1.7109l2.0332 6.082c0.1875 0.56641 0.32422 0.99023 0.41016 1.2715 0.097657-0.3125 0.25-0.77148 0.45703-1.377l2.0566-5.9766h1.5293v8.5898h-1.0957v-7.1895l-2.4961 7.1895h-1.0254l-2.4844-7.3125v7.3125h-1.0957zm13.957-0.76758c-0.39063 0.33203-0.7666 0.56641-1.1279 0.70312-0.36133 0.13672-0.74902 0.20508-1.1631 0.20508-0.6836 0-1.209-0.16699-1.5762-0.50098-0.36719-0.33399-0.55078-0.76074-0.55078-1.2803 0-0.30469 0.069335-0.58301 0.20801-0.83496 0.13867-0.25195 0.32031-0.4541 0.54492-0.60645 0.22461-0.15234 0.47754-0.26758 0.75879-0.3457 0.20703-0.054688 0.51953-0.10742 0.9375-0.1582 0.85157-0.10156 1.4785-0.22266 1.8809-0.36328 0.0039062-0.14453 0.0058593-0.23633 0.0058593-0.27539 0-0.42969-0.099608-0.73242-0.29883-0.9082-0.26953-0.23828-0.66992-0.35742-1.2012-0.35742-0.4961 0-0.8623 0.086913-1.0986 0.26074s-0.41113 0.48144-0.52441 0.92285l-1.0312-0.14062c0.09375-0.44141 0.24805-0.79785 0.46289-1.0693 0.21484-0.27149 0.52539-0.48047 0.93164-0.62695 0.40625-0.14649 0.87695-0.21973 1.4121-0.21973 0.53125 0 0.96289 0.062499 1.2949 0.1875 0.33203 0.125 0.57617 0.28223 0.73242 0.47168 0.15625 0.18945 0.26562 0.42871 0.32812 0.71777 0.035156 0.17969 0.052734 0.5039 0.052734 0.97266v1.4062c0 0.98047 0.022461 1.6006 0.067383 1.8604s0.13379 0.50879 0.2666 0.74707h-1.1016c-0.10938-0.21875-0.17969-0.47461-0.21094-0.76758zm-0.087891-2.3555c-0.38281 0.15625-0.95703 0.28906-1.7227 0.39844-0.4336 0.0625-0.74023 0.13281-0.91992 0.21094-0.17969 0.078125-0.31836 0.19238-0.41602 0.34277-0.097657 0.15039-0.14648 0.31738-0.14648 0.50098 0 0.28125 0.10644 0.51562 0.31934 0.70312 0.21289 0.1875 0.52441 0.28125 0.93457 0.28125 0.40625 0 0.76758-0.088866 1.084-0.2666 0.31641-0.17774 0.54883-0.4209 0.69727-0.72949 0.11328-0.23828 0.16992-0.58984 0.16992-1.0547v-0.38672zm2.6895 3.123v-6.2227h0.94922v0.94336c0.24219-0.44141 0.46582-0.73242 0.6709-0.87305 0.20508-0.14063 0.43066-0.21094 0.67676-0.21094 0.35547 0 0.7168 0.11328 1.084 0.33984l-0.36328 0.97852c-0.25781-0.15234-0.51562-0.22852-0.77344-0.22852-0.23047 0-0.4375 0.069335-0.62109 0.20801s-0.31445 0.33105-0.39258 0.57715c-0.11719 0.375-0.17578 0.78515-0.17578 1.2305v3.2578h-1.0547zm4.0137 0v-8.5898h1.0547v4.8984l2.4961-2.5312h1.3652l-2.3789 2.3086 2.6191 3.9141h-1.3008l-2.0566-3.1816-0.74414 0.71484v2.4668h-1.0547zm15.592-3.0117l1.1367 0.28711c-0.23828 0.9336-0.66699 1.6455-1.2861 2.1357-0.61914 0.49024-1.376 0.73535-2.2705 0.73535-0.92579 0-1.6787-0.18847-2.2588-0.56543s-1.0215-0.92285-1.3242-1.6377-0.4541-1.4824-0.4541-2.3027c0-0.89454 0.1709-1.6748 0.5127-2.3408 0.3418-0.66602 0.82812-1.1719 1.459-1.5176 0.63086-0.3457 1.3252-0.51855 2.083-0.51855 0.85938 0 1.582 0.21875 2.168 0.65625 0.58594 0.4375 0.99414 1.0527 1.2246 1.8457l-1.1191 0.26367c-0.19922-0.625-0.48828-1.0801-0.86719-1.3652s-0.85547-0.42773-1.4297-0.42773c-0.66016 0-1.2119 0.1582-1.6553 0.47461s-0.75488 0.74121-0.93457 1.2744c-0.17969 0.53321-0.26953 1.083-0.26953 1.6494 0 0.73047 0.10644 1.3682 0.31934 1.9131 0.21289 0.54492 0.54394 0.95215 0.99316 1.2217 0.44922 0.26953 0.93554 0.4043 1.459 0.4043 0.63672 0 1.1758-0.18359 1.6172-0.55078 0.44141-0.36719 0.74023-0.91211 0.89648-1.6348zm2.0098-0.099609c0-1.1523 0.32031-2.0059 0.96094-2.5605 0.53516-0.46094 1.1875-0.69141 1.957-0.69141 0.85547 0 1.5547 0.28027 2.0977 0.84082 0.54297 0.56055 0.81445 1.335 0.81445 2.3232 0 0.80079-0.12012 1.4307-0.36035 1.8896s-0.58984 0.81543-1.0488 1.0693c-0.45899 0.25391-0.95996 0.38086-1.5029 0.38086-0.8711 0-1.5752-0.27929-2.1123-0.83789-0.53711-0.5586-0.80566-1.3633-0.80566-2.4141zm1.084 0c0 0.79688 0.17383 1.3936 0.52148 1.79 0.34766 0.39649 0.78515 0.59473 1.3125 0.59473 0.52344 0 0.95898-0.19922 1.3066-0.59766 0.34766-0.39844 0.52148-1.0059 0.52148-1.8223 0-0.76954-0.1748-1.3525-0.52441-1.749-0.34961-0.39649-0.78418-0.59473-1.3037-0.59473-0.52735 0-0.96484 0.19726-1.3125 0.5918s-0.52148 0.99023-0.52148 1.7871zm5.959 3.1113v-8.5898h1.0547v8.5898h-1.0547zm6.9492-2.0039l1.0898 0.13477c-0.17188 0.63672-0.49023 1.1309-0.95508 1.4824-0.46485 0.35156-1.0586 0.52734-1.7812 0.52734-0.91016 0-1.6318-0.28027-2.165-0.84082-0.5332-0.56055-0.7998-1.3467-0.7998-2.3584 0-1.0469 0.26953-1.8594 0.80859-2.4375 0.53907-0.57813 1.2383-0.86719 2.0977-0.86719 0.83204 0 1.5117 0.2832 2.0391 0.84961 0.52735 0.56641 0.79102 1.3633 0.79102 2.3906 0 0.0625-0.001953 0.15625-0.005859 0.28125h-4.6406c0.039063 0.6836 0.23242 1.207 0.58008 1.5703 0.34766 0.36328 0.78125 0.54492 1.3008 0.54492 0.38672 0 0.7168-0.10156 0.99023-0.30469s0.49023-0.52734 0.65039-0.97266zm-3.4629-1.7051h3.4746c-0.046876-0.52344-0.17969-0.91601-0.39844-1.1777-0.33594-0.40625-0.77148-0.60938-1.3066-0.60938-0.48438 0-0.8916 0.16211-1.2217 0.48633-0.33008 0.32422-0.5127 0.75781-0.54785 1.3008z" fill="#717783" mask="url(#a)"/>
<path d="m80.354 113v-6.2227h0.94336v0.87305c0.19531-0.30469 0.45508-0.5498 0.7793-0.73535 0.32422-0.18555 0.69336-0.27832 1.1074-0.27832 0.46094 0 0.83887 0.095702 1.1338 0.28711 0.29492 0.19141 0.50293 0.45898 0.62402 0.80273 0.49219-0.72657 1.1328-1.0898 1.9219-1.0898 0.61719 0 1.0918 0.1709 1.4238 0.5127s0.49805 0.86816 0.49805 1.5791v4.2715h-1.0488v-3.9199c0-0.42188-0.034179-0.72558-0.10254-0.91113-0.06836-0.18555-0.19238-0.33496-0.37207-0.44824s-0.39062-0.16992-0.63281-0.16992c-0.4375 0-0.80078 0.14551-1.0898 0.43652-0.28906 0.29102-0.43359 0.75683-0.43359 1.3975v3.6152h-1.0547v-4.043c0-0.46875-0.085937-0.82031-0.25781-1.0547-0.17188-0.23438-0.45312-0.35156-0.84375-0.35156-0.29688 0-0.57129 0.078124-0.82324 0.23438s-0.43457 0.38476-0.54785 0.68555c-0.11328 0.30078-0.16992 0.73437-0.16992 1.3008v3.2285h-1.0547zm14.057-0.76758c-0.39063 0.33203-0.7666 0.5664-1.1279 0.70312-0.36133 0.13672-0.74902 0.20508-1.1631 0.20508-0.6836 0-1.209-0.16699-1.5762-0.50098s-0.55078-0.76074-0.55078-1.2803c0-0.30469 0.069335-0.58301 0.20801-0.83496 0.13867-0.25195 0.32031-0.4541 0.54492-0.60644 0.22461-0.15234 0.47754-0.26758 0.75879-0.3457 0.20703-0.054688 0.51953-0.10742 0.9375-0.1582 0.85157-0.10156 1.4785-0.22266 1.8809-0.36328 0.0039063-0.14453 0.0058594-0.23633 0.0058594-0.27539 0-0.42969-0.099608-0.73242-0.29883-0.9082-0.26953-0.23828-0.66992-0.35742-1.2012-0.35742-0.4961 0-0.8623 0.086913-1.0986 0.26074-0.23633 0.17383-0.41113 0.48144-0.52441 0.92285l-1.0312-0.14062c0.09375-0.44141 0.24805-0.79785 0.46289-1.0693 0.21484-0.27148 0.52539-0.48047 0.93164-0.62695 0.40625-0.14648 0.87695-0.21973 1.4121-0.21973 0.53125 0 0.96289 0.062499 1.2949 0.1875 0.33203 0.125 0.57617 0.28222 0.73242 0.47168 0.15625 0.18946 0.26562 0.42871 0.32812 0.71777 0.035156 0.17969 0.052734 0.5039 0.052734 0.97266v1.4062c0 0.98047 0.022461 1.6006 0.067383 1.8604 0.044922 0.25977 0.13379 0.50879 0.2666 0.74707h-1.1016c-0.10938-0.21875-0.17969-0.47461-0.21094-0.76758zm-0.087891-2.3555c-0.38281 0.15625-0.95703 0.28906-1.7227 0.39844-0.4336 0.0625-0.74023 0.13281-0.91992 0.21094-0.17969 0.078126-0.31836 0.19238-0.41602 0.34277-0.097657 0.15039-0.14648 0.31738-0.14648 0.50098 0 0.28125 0.10644 0.51562 0.31934 0.70312s0.52441 0.28125 0.93457 0.28125c0.40625 0 0.76758-0.088866 1.084-0.2666 0.31641-0.17774 0.54883-0.4209 0.69727-0.72949 0.11328-0.23828 0.16992-0.58984 0.16992-1.0547v-0.38672zm2.6895 3.123v-6.2227h0.94922v0.94336c0.24219-0.44141 0.46582-0.73242 0.6709-0.87305 0.20508-0.14062 0.43066-0.21094 0.67676-0.21094 0.35547 0 0.71679 0.11328 1.084 0.33984l-0.36328 0.97852c-0.25781-0.15234-0.51562-0.22852-0.77344-0.22852-0.23047 0-0.4375 0.069336-0.62109 0.20801-0.18359 0.13867-0.31445 0.33105-0.39258 0.57715-0.11719 0.375-0.17578 0.78515-0.17578 1.2305v3.2578h-1.0547zm4.0137 0v-8.5898h1.0547v4.8984l2.4961-2.5312h1.3652l-2.3789 2.3086 2.6191 3.9141h-1.3008l-2.0566-3.1816-0.74414 0.71484v2.4668h-1.0547zm12.006-0.95508c-0.25391 0.29297-0.53808 0.52832-0.85254 0.70606-0.31446 0.17774-0.62988 0.2666-0.94629 0.2666-0.34766 0-0.68554-0.10156-1.0137-0.30469-0.32813-0.20313-0.59473-0.51562-0.7998-0.9375s-0.30762-0.88476-0.30762-1.3887c0-0.6211 0.15918-1.2432 0.47754-1.8662s0.71386-1.0908 1.1865-1.4033c0.47266-0.3125 0.93164-0.46875 1.377-0.46875 0.33985 0 0.66406 0.088866 0.97266 0.2666 0.3086 0.17774 0.57422 0.44824 0.79688 0.81152l0.19922-0.9082h1.0488l-0.84375 3.9316c-0.11719 0.54688-0.17578 0.84961-0.17578 0.9082 0 0.10547 0.040039 0.19629 0.12012 0.27246 0.080079 0.076172 0.17676 0.11426 0.29004 0.11426 0.20703 0 0.47851-0.11914 0.81445-0.35742 0.44531-0.3125 0.79785-0.73144 1.0576-1.2568s0.38965-1.0674 0.38965-1.626c0-0.65235-0.16699-1.2617-0.50098-1.8281-0.33399-0.56641-0.83203-1.0195-1.4941-1.3594-0.66211-0.33985-1.3936-0.50977-2.1943-0.50977-0.91407 0-1.749 0.21386-2.5049 0.6416-0.75586 0.42774-1.3418 1.041-1.7578 1.8398-0.41602 0.79883-0.62402 1.6553-0.62402 2.5693 0 0.95704 0.20801 1.7812 0.62402 2.4727 0.41602 0.69141 1.0176 1.2021 1.8047 1.5322 0.78711 0.33008 1.6592 0.49512 2.6162 0.49512 1.0234 0 1.8809-0.17187 2.5723-0.51562s1.209-0.76172 1.5527-1.2539h1.0605c-0.19922 0.41016-0.54101 0.82812-1.0254 1.2539-0.48438 0.42578-1.0605 0.76269-1.7285 1.0107s-1.4727 0.37207-2.4141 0.37207c-0.86719 0-1.667-0.11133-2.3994-0.33398-0.73242-0.22266-1.3564-0.55762-1.8721-1.0049-0.51563-0.44727-0.9043-0.96191-1.166-1.5439-0.32813-0.73828-0.49219-1.5352-0.49219-2.3906 0-0.95313 0.19531-1.8613 0.58594-2.7246 0.47656-1.0586 1.1533-1.8691 2.0303-2.4316 0.87696-0.5625 1.9404-0.84375 3.1904-0.84375 0.96876 0 1.8389 0.19824 2.6104 0.59473 0.77149 0.39649 1.3799 0.9873 1.8252 1.7725 0.37891 0.67578 0.56836 1.4102 0.56836 2.2031 0 1.1328-0.39843 2.1387-1.1953 3.0176-0.71094 0.78907-1.4883 1.1836-2.332 1.1836-0.26953 0-0.4873-0.041016-0.65332-0.12305-0.16602-0.082032-0.28809-0.19922-0.36621-0.35156-0.050782-0.097657-0.087891-0.26562-0.11133-0.50391zm-2.8359-1.5879c0 0.53516 0.12695 0.95117 0.38086 1.248 0.25391 0.29688 0.54492 0.44531 0.87305 0.44531 0.21875 0 0.44922-0.065429 0.69141-0.19629 0.24219-0.13086 0.47363-0.32519 0.69434-0.58301 0.2207-0.25781 0.40137-0.58496 0.54199-0.98145 0.14062-0.39649 0.21094-0.79394 0.21094-1.1924 0-0.53125-0.13183-0.94336-0.39551-1.2363-0.26367-0.29297-0.58496-0.43945-0.96387-0.43945-0.25 0-0.48535 0.063476-0.70605 0.19043-0.2207 0.12695-0.43457 0.33105-0.6416 0.6123-0.20703 0.28125-0.37305 0.62304-0.49805 1.0254-0.125 0.40235-0.1875 0.77148-0.1875 1.1074zm8.4492 2.543v-0.85547l3.9609-4.5469c-0.44922 0.023438-0.8457 0.035156-1.1895 0.035156h-2.5371v-0.85547h5.0859v0.69726l-3.3691 3.9492-0.65039 0.7207c0.47266-0.035156 0.91601-0.052734 1.3301-0.052734h2.877v0.9082h-5.5078zm6.1641-3.1113c0-1.1524 0.32031-2.0059 0.96094-2.5605 0.53516-0.46094 1.1875-0.69141 1.957-0.69141 0.85547 0 1.5547 0.28027 2.0977 0.84082 0.54297 0.56055 0.81445 1.335 0.81445 2.3232 0 0.80079-0.12012 1.4307-0.36035 1.8896-0.24024 0.45899-0.58984 0.81543-1.0488 1.0693-0.45899 0.25391-0.95996 0.38086-1.5029 0.38086-0.8711 0-1.5752-0.27929-2.1123-0.83789-0.53711-0.5586-0.80566-1.3633-0.80566-2.4141zm1.084 0c0 0.79688 0.17383 1.3936 0.52148 1.79s0.78515 0.59473 1.3125 0.59473c0.52344 0 0.95898-0.19922 1.3066-0.59766 0.34766-0.39844 0.52148-1.0059 0.52148-1.8223 0-0.76954-0.1748-1.3525-0.52441-1.749-0.34961-0.39649-0.78418-0.59473-1.3037-0.59473-0.52735 0-0.96484 0.19726-1.3125 0.5918-0.34766 0.39453-0.52148 0.99023-0.52148 1.7871zm5.5898 0c0-1.1524 0.32031-2.0059 0.96094-2.5605 0.53516-0.46094 1.1875-0.69141 1.957-0.69141 0.85547 0 1.5547 0.28027 2.0977 0.84082 0.54297 0.56055 0.81445 1.335 0.81445 2.3232 0 0.80079-0.12012 1.4307-0.36035 1.8896-0.24024 0.45899-0.58984 0.81543-1.0488 1.0693-0.45899 0.25391-0.95996 0.38086-1.5029 0.38086-0.8711 0-1.5752-0.27929-2.1123-0.83789-0.53711-0.5586-0.80566-1.3633-0.80566-2.4141zm1.084 0c0 0.79688 0.17383 1.3936 0.52148 1.79s0.78515 0.59473 1.3125 0.59473c0.52344 0 0.95898-0.19922 1.3066-0.59766 0.34766-0.39844 0.52148-1.0059 0.52148-1.8223 0-0.76954-0.1748-1.3525-0.52441-1.749-0.34961-0.39649-0.78418-0.59473-1.3037-0.59473-0.52735 0-0.96484 0.19726-1.3125 0.5918-0.34766 0.39453-0.52148 0.99023-0.52148 1.7871zm5.2793 3.1113l2.2734-3.2344-2.1035-2.9883h1.3184l0.95508 1.459c0.17969 0.27734 0.32422 0.50976 0.43359 0.69727 0.17188-0.25781 0.33008-0.48633 0.47461-0.68555l1.0488-1.4707h1.2598l-2.1504 2.9297 2.3145 3.293h-1.2949l-1.2773-1.9336-0.33984-0.52148-1.6348 2.4551h-1.2773zm6.3105-3.1113c0-1.1524 0.32031-2.0059 0.96094-2.5605 0.53516-0.46094 1.1875-0.69141 1.957-0.69141 0.85547 0 1.5547 0.28027 2.0977 0.84082 0.54297 0.56055 0.81445 1.335 0.81445 2.3232 0 0.80079-0.12012 1.4307-0.36035 1.8896-0.24024 0.45899-0.58984 0.81543-1.0488 1.0693-0.45899 0.25391-0.95996 0.38086-1.5029 0.38086-0.8711 0-1.5752-0.27929-2.1123-0.83789-0.53711-0.5586-0.80566-1.3633-0.80566-2.4141zm1.084 0c0 0.79688 0.17383 1.3936 0.52148 1.79s0.78515 0.59473 1.3125 0.59473c0.52344 0 0.95898-0.19922 1.3066-0.59766 0.34766-0.39844 0.52148-1.0059 0.52148-1.8223 0-0.76954-0.1748-1.3525-0.52441-1.749-0.34961-0.39649-0.78418-0.59473-1.3037-0.59473-0.52735 0-0.96484 0.19726-1.3125 0.5918-0.34766 0.39453-0.52148 0.99023-0.52148 1.7871zm6.2812 3.1113v-1.2012h1.2012v1.2012h-1.2012zm7.0957-2.2793l1.0371 0.13477c-0.11328 0.71485-0.40332 1.2744-0.87012 1.6787s-1.04 0.60644-1.7197 0.60644c-0.85157 0-1.5361-0.27832-2.0537-0.83496-0.51758-0.55664-0.77637-1.3545-0.77637-2.3936 0-0.67188 0.11133-1.2598 0.33398-1.7637 0.22266-0.50391 0.56152-0.88184 1.0166-1.1338 0.45508-0.25195 0.95019-0.37793 1.4854-0.37793 0.67578 0 1.2285 0.1709 1.6582 0.5127 0.42969 0.3418 0.70508 0.82714 0.82617 1.4561l-1.0254 0.1582c-0.097656-0.41797-0.27051-0.73242-0.51855-0.94336-0.24805-0.21094-0.54785-0.31641-0.89941-0.31641-0.53125 0-0.96289 0.19043-1.2949 0.57129-0.33203 0.38086-0.49805 0.9834-0.49805 1.8076 0 0.83594 0.16016 1.4434 0.48047 1.8223s0.73828 0.56836 1.2539 0.56836c0.41406 0 0.75976-0.12695 1.0371-0.38086 0.27734-0.25391 0.45312-0.64453 0.52734-1.1719zm1.5469-0.83203c0-1.1524 0.32031-2.0059 0.96094-2.5605 0.53516-0.46094 1.1875-0.69141 1.957-0.69141 0.85547 0 1.5547 0.28027 2.0977 0.84082 0.54297 0.56055 0.81445 1.335 0.81445 2.3232 0 0.80079-0.12012 1.4307-0.36035 1.8896-0.24024 0.45899-0.58984 0.81543-1.0488 1.0693-0.45899 0.25391-0.95996 0.38086-1.5029 0.38086-0.8711 0-1.5752-0.27929-2.1123-0.83789-0.53711-0.5586-0.80566-1.3633-0.80566-2.4141zm1.084 0c0 0.79688 0.17383 1.3936 0.52148 1.79s0.78515 0.59473 1.3125 0.59473c0.52344 0 0.95898-0.19922 1.3066-0.59766 0.34766-0.39844 0.52148-1.0059 0.52148-1.8223 0-0.76954-0.1748-1.3525-0.52441-1.749-0.34961-0.39649-0.78418-0.59473-1.3037-0.59473-0.52735 0-0.96484 0.19726-1.3125 0.5918-0.34766 0.39453-0.52148 0.99023-0.52148 1.7871zm5.9824 3.1113v-6.2227h0.94336v0.87305c0.19531-0.30469 0.45508-0.5498 0.7793-0.73535 0.32422-0.18555 0.69336-0.27832 1.1074-0.27832 0.46094 0 0.83887 0.095702 1.1338 0.28711 0.29492 0.19141 0.50293 0.45898 0.62402 0.80273 0.49219-0.72657 1.1328-1.0898 1.9219-1.0898 0.61719 0 1.0918 0.1709 1.4238 0.5127s0.49805 0.86816 0.49805 1.5791v4.2715h-1.0488v-3.9199c0-0.42188-0.03418-0.72558-0.10254-0.91113-0.06836-0.18555-0.19238-0.33496-0.37207-0.44824-0.17969-0.11328-0.39062-0.16992-0.63281-0.16992-0.4375 0-0.80078 0.14551-1.0898 0.43652s-0.43359 0.75683-0.43359 1.3975v3.6152h-1.0547v-4.043c0-0.46875-0.085937-0.82031-0.25781-1.0547-0.17188-0.23438-0.45312-0.35156-0.84375-0.35156-0.29688 0-0.57129 0.078124-0.82324 0.23438-0.25195 0.15625-0.43457 0.38476-0.54785 0.68555s-0.16992 0.73437-0.16992 1.3008v3.2285h-1.0547z" fill="#717783" mask="url(#a)"/>
<path d="m82.464 80.5h169.07" mask="url(#a)" stroke="#D4D4D4" stroke-linecap="square"/>
<path d="m82.464 117.5h169.07" mask="url(#a)" stroke="#D4D4D4" stroke-linecap="square"/>
<path d="m29.758 34l-0.17188-0.48828c-0.11458-0.32552-0.24609-0.70052-0.39453-1.125-0.14844-0.42448-0.27995-0.79948-0.39453-1.125l-0.17188-0.48828h-4.4844l-1.1328 3.2266h-1.4766l4.1562-11.273h1.3906l4.1562 11.273h-1.4766zm-3.4375-9.4531l-0.17969 0.50781c-0.11979 0.33854-0.26693 0.75781-0.44141 1.2578l-0.52344 1.5c-0.17448 0.5-0.32161 0.91927-0.44141 1.2578l-0.17969 0.50781h3.6562l-1.7656-5.0312h-0.125zm6.5781-1.8203h4.2578c1.0677 0 1.9362 0.33984 2.6055 1.0195 0.66927 0.67969 1.0039 1.556 1.0039 2.6289 0 1.0521-0.33984 1.9154-1.0195 2.5898-0.67969 0.67448-1.5482 1.0117-2.6055 1.0117h-2.8359v4.0234h-1.4062v-11.273zm1.4062 1.25v4.75h2.4844c0.80209 0 1.4245-0.20573 1.8672-0.61719s0.66406-0.98958 0.66406-1.7344c0-0.77605-0.21745-1.3698-0.65234-1.7812-0.4349-0.41146-1.0612-0.61719-1.8789-0.61719h-2.4844zm8.4453-1.25h4.2578c1.0677 0 1.9362 0.33984 2.6055 1.0195 0.66927 0.67969 1.0039 1.556 1.0039 2.6289 0 1.0521-0.33984 1.9154-1.0195 2.5898-0.67969 0.67448-1.5482 1.0117-2.6055 1.0117h-2.8359v4.0234h-1.4062v-11.273zm1.4062 1.25v4.75h2.4844c0.80209 0 1.4245-0.20573 1.8672-0.61719s0.66406-0.98958 0.66406-1.7344c0-0.77605-0.21745-1.3698-0.65234-1.7812-0.4349-0.41146-1.0612-0.61719-1.8789-0.61719h-2.4844zm15.289 8.7578v1.2656h-6.8438v-11.273h1.4062v10.008h5.4375zm3.3359 1.2656h-1.4062v-11.273h1.4062v11.273zm7.1016 0.26562c-1.5313 0-2.7435-0.52864-3.6367-1.5859-0.89323-1.0573-1.3398-2.4948-1.3398-4.3125 0-1.8229 0.44531-3.263 1.3359-4.3203s2.1016-1.5859 3.6328-1.5859c1.1875 0 2.2031 0.33854 3.0469 1.0156s1.349 1.5599 1.5156 2.6484h-1.4297c-0.1875-0.72917-0.5625-1.306-1.125-1.7305-0.5625-0.42448-1.2318-0.63672-2.0078-0.63672-1.0833 0-1.9414 0.41406-2.5742 1.2422-0.63282 0.82813-0.94922 1.9505-0.94922 3.3672 0 1.4115 0.31771 2.5312 0.95312 3.3594s1.4948 1.2422 2.5781 1.2422c0.78646 0 1.4596-0.1888 2.0195-0.56641 0.5599-0.37761 0.92838-0.89192 1.1055-1.543h1.4297c-0.1875 1.0365-0.69401 1.8633-1.5195 2.4805-0.82552 0.61719-1.8372 0.92578-3.0352 0.92578zm13.617-0.26562l-0.17188-0.48828c-0.11458-0.32552-0.24609-0.70052-0.39453-1.125-0.14844-0.42448-0.27995-0.79948-0.39453-1.125l-0.17188-0.48828h-4.4844l-1.1328 3.2266h-1.4766l4.1562-11.273h1.3906l4.1562 11.273h-1.4766zm-3.4375-9.4531l-0.17969 0.50781c-0.11979 0.33854-0.26693 0.75781-0.44141 1.2578l-0.52344 1.5c-0.17448 0.5-0.32161 0.91927-0.44141 1.2578l-0.17969 0.50781h3.6562l-1.7656-5.0312h-0.125zm7.9688 9.4531h-1.3906v-11.273h1.3672l6.1172 8.7734h0.125v-8.7734h1.3906v11.273h-1.3672l-6.1172-8.7422h-0.125v8.7422zm14.508 0h-1.4062v-10.008h-3.6328v-1.2656h8.6719v1.2656h-3.6328v10.008zm9.6953-11.273h3.8672c1.6719 0 2.9766 0.49479 3.9141 1.4844s1.4062 2.3724 1.4062 4.1484-0.46744 3.1602-1.4023 4.1523c-0.9349 0.99219-2.2409 1.4883-3.918 1.4883h-3.8672v-11.273zm1.4062 1.2656v8.7422h2.3672c1.2604 0 2.2383-0.38281 2.9336-1.1484s1.043-1.8359 1.043-3.2109c0-1.3802-0.35026-2.4557-1.0508-3.2266-0.70052-0.77084-1.6758-1.1562-2.9258-1.1562h-2.3672zm16.883 8.7422v1.2656h-6.9844v-11.273h6.9844v1.2656h-5.5781v3.6172h5.2891v1.25h-5.2891v3.875h5.5781zm6.5703 1.2656h-1.4062v-10.008h-3.6328v-1.2656h8.6719v1.2656h-3.6328v10.008zm11.492 0l-0.17188-0.48828c-0.11458-0.32552-0.24609-0.70052-0.39453-1.125-0.14844-0.42448-0.27995-0.79948-0.39453-1.125l-0.17188-0.48828h-4.4844l-1.1328 3.2266h-1.4766l4.1562-11.273h1.3906l4.1562 11.273h-1.4766zm-3.4375-9.4531l-0.17969 0.50781c-0.11979 0.33854-0.26693 0.75781-0.44141 1.2578l-0.52344 1.5c-0.17448 0.5-0.32161 0.91927-0.44141 1.2578l-0.17969 0.50781h3.6562l-1.7656-5.0312h-0.125zm7.9844 9.4531h-1.4062v-11.273h1.4062v11.273zm9.4062-1.2656v1.2656h-6.8438v-11.273h1.4062v10.008h5.4375zm1.3906-1.6797h1.4219c0.088543 0.58854 0.39323 1.0573 0.91406 1.4062s1.1823 0.52344 1.9844 0.52344c0.76042 0 1.3893-0.18359 1.8867-0.55078 0.4974-0.36719 0.74609-0.82942 0.74609-1.3867 0-0.47917-0.18229-0.8776-0.54687-1.1953-0.36459-0.31771-0.93489-0.57292-1.7109-0.76562l-1.4453-0.375c-1.0208-0.26042-1.763-0.63151-2.2266-1.1133-0.46354-0.48177-0.69531-1.1237-0.69531-1.9258 0-0.95834 0.36588-1.7331 1.0977-2.3242 0.73177-0.59115 1.694-0.88672 2.8867-0.88672 1.0885 0 2 0.29166 2.7344 0.875 0.73438 0.58334 1.1302 1.3307 1.1875 2.2422h-1.4141c-0.098959-0.57813-0.3737-1.0299-0.82422-1.3555-0.45052-0.32552-1.0273-0.48828-1.7305-0.48828-0.75 0-1.3529 0.17187-1.8086 0.51562-0.45573 0.34375-0.68359 0.80208-0.68359 1.375 0 0.44271 0.16797 0.80208 0.50391 1.0781s0.89192 0.51302 1.668 0.71094l1.1797 0.3125c1.1667 0.29167 2.0039 0.68229 2.5117 1.1719s0.76172 1.1484 0.76172 1.9766c0 1.0365-0.3789 1.8607-1.1367 2.4727-0.75782 0.61198-1.7825 0.91797-3.0742 0.91797-1.1927 0-2.1706-0.29166-2.9336-0.875-0.76302-0.58334-1.181-1.362-1.2539-2.3359z" fill="#2D4373" mask="url(#a)"/>
<g mask="url(#a)">
<g transform="translate(261 59)">
<rect width="92" height="21" rx="10.5" fill="url(#c)" fill-rule="evenodd"/>
<path d="m26.639 8.4033h-0.069824c-0.17904 0-0.30615-0.029541-0.38135-0.088623-0.075196-0.059082-0.11279-0.15845-0.11279-0.2981 0-0.12533 0.032226-0.22111 0.09668-0.28735s0.15755-0.099365 0.2793-0.099365h1.6274c0.21126 0 0.3536 0.028646 0.427 0.085938 0.073405 0.057292 0.11011 0.15755 0.11011 0.30078 0 0.13249-0.039388 0.23006-0.11816 0.29272-0.078776 0.062663-0.2041 0.093994-0.37598 0.093994h-0.59082l1.8262 4.6836 1.7778-4.6836h-0.71436c-0.1683 0-0.29272-0.031331-0.37329-0.093994-0.080567-0.062663-0.12085-0.16024-0.12085-0.29272 0-0.14323 0.037597-0.24349 0.11279-0.30078 0.075196-0.057292 0.21663-0.085938 0.42432-0.085938h1.6865c0.12175 0 0.21395 0.033121 0.27661 0.099365 0.062663 0.066244 0.093994 0.16203 0.093994 0.28735 0 0.13965-0.037597 0.23901-0.11279 0.2981-0.075196 0.059082-0.20589 0.088623-0.39209 0.088623h-0.064453l-1.9336 5.0596c-0.111 0.26856-0.19873 0.43595-0.26318 0.5022-0.064453 0.066244-0.14681 0.099365-0.24707 0.099365h-0.30615c-0.23633 0-0.4279-0.18978-0.57471-0.56934l-0.010742-0.032227-1.9766-5.0596zm7.4443 3.3516c0.028646 0.51563 0.2032 0.91398 0.52368 1.1951 0.32048 0.28109 0.75822 0.42163 1.3132 0.42163 0.41895 0 0.87549-0.1119 1.3696-0.33569s0.79313-0.33569 0.89697-0.33569c0.10742 0 0.19694 0.034017 0.26855 0.10205s0.10742 0.15218 0.10742 0.25244c0 0.10384-0.037597 0.19873-0.11279 0.28467-0.075196 0.085938-0.19515 0.17008-0.35986 0.25244-0.35807 0.17546-0.72778 0.30973-1.1091 0.40283-0.38135 0.093099-0.76001 0.13965-1.136 0.13965-0.81641 0-1.4699-0.23543-1.9604-0.7063-0.49056-0.47087-0.73584-1.0948-0.73584-1.8718 0-0.79135 0.2596-1.4323 0.77881-1.9229 0.51921-0.49056 1.196-0.73584 2.0303-0.73584 0.75554 0 1.3822 0.22916 1.8799 0.6875 0.49772 0.45834 0.74658 1.0133 0.74658 1.665 0 0.20052-0.042073 0.3348-0.12622 0.40283-0.084148 0.068034-0.31242 0.10205-0.68481 0.10205h-3.6899zm0.026856-0.70361h3.4966c-0.053711-0.42611-0.23185-0.76896-0.53442-1.0286-0.30257-0.2596-0.67407-0.3894-1.1145-0.3894-0.47624 0-0.87728 0.12532-1.2031 0.37598-0.32585 0.25065-0.54069 0.59798-0.64453 1.042zm7.8633 2.1914h1.7832c0.13965 0 0.24259 0.029541 0.30884 0.088623 0.066244 0.059082 0.099365 0.15308 0.099365 0.28198 0 0.14681-0.031331 0.24797-0.093994 0.30347-0.062663 0.055502-0.17814 0.083252-0.34644 0.083252h-3.5127c-0.13965 0-0.24528-0.032226-0.31689-0.09668-0.071615-0.064453-0.10742-0.16113-0.10742-0.29004 0-0.12533 0.036702-0.21842 0.11011-0.2793s0.18709-0.091309 0.34106-0.091309h0.93457v-3.4429h-0.36523c-0.34733 0-0.56396-0.02775-0.6499-0.083252-0.085938-0.055502-0.12891-0.15666-0.12891-0.30347 0-0.12533 0.034912-0.21932 0.10474-0.28198 0.069825-0.062663 0.17635-0.093994 0.31958-0.093994h1.2246c0.09668 0 0.17008 0.018799 0.22021 0.056396s0.075195 0.092203 0.075195 0.16382v0.91309c0.34017-0.42611 0.69466-0.743 1.0635-0.95068 0.36882-0.20768 0.76627-0.31152 1.1924-0.31152 0.31869 0 0.5765 0.064452 0.77344 0.19336s0.29541 0.29541 0.29541 0.49951c0 0.13249-0.049234 0.24976-0.1477 0.35181-0.098471 0.10205-0.20679 0.15308-0.32495 0.15308-0.082357 0-0.22111-0.054606-0.41626-0.16382-0.19515-0.10921-0.36971-0.16382-0.52368-0.16382-0.2793 0-0.57381 0.099364-0.88354 0.2981-0.30973 0.19873-0.65259 0.51294-1.0286 0.94263v2.2236zm6.6333-5.7524c0-0.38672 0.034912-0.63021 0.10474-0.73047 0.069825-0.10026 0.21932-0.15039 0.44849-0.15039 0.22201 0 0.36881 0.042073 0.44043 0.12622 0.071615 0.084148 0.10742 0.28377 0.10742 0.59888 0 0.30794-0.033121 0.49862-0.099365 0.57202-0.066244 0.073405-0.21574 0.11011-0.44849 0.11011-0.22917 0-0.37866-0.034017-0.44849-0.10205-0.069824-0.068034-0.10474-0.20947-0.10474-0.42432zm0.99365 5.7524h1.7241c0.13965 0 0.24259 0.029541 0.30884 0.088623 0.066244 0.059082 0.099365 0.15308 0.099365 0.28198 0 0.14681-0.031331 0.24797-0.093994 0.30347-0.062663 0.055502-0.17814 0.083252-0.34644 0.083252h-4.168c-0.14323 0-0.25065-0.032226-0.32227-0.09668-0.071615-0.064453-0.10742-0.16113-0.10742-0.29004 0-0.12533 0.037597-0.21842 0.11279-0.2793s0.18799-0.091309 0.33838-0.091309h1.6382v-3.4429h-1.0474c-0.14681 0-0.25871-0.033121-0.33569-0.099365-0.076986-0.066244-0.11548-0.16203-0.11548-0.28735 0-0.12533 0.035807-0.21932 0.10742-0.28198 0.071615-0.062663 0.17904-0.093994 0.32227-0.093994h1.5737c0.09668 0 0.17277 0.019694 0.22827 0.059082 0.055502 0.039388 0.083252 0.093099 0.083252 0.16113v3.9854zm7.7559-0.010742c0.14681 0 0.25871 0.032226 0.33569 0.09668 0.076986 0.064453 0.11548 0.15934 0.11548 0.28467 0 0.12891-0.036702 0.22559-0.11011 0.29004-0.073405 0.064454-0.17993 0.09668-0.31958 0.09668h-3.5127c-0.14681 0-0.25871-0.032226-0.33569-0.09668-0.076986-0.064453-0.11548-0.16113-0.11548-0.29004 0-0.12533 0.036702-0.22021 0.11011-0.28467 0.073405-0.064454 0.17993-0.09668 0.31958-0.09668h0.91309v-3.2817h-0.88086c-0.14681 0-0.2605-0.034017-0.34106-0.10205-0.080567-0.068034-0.12085-0.16471-0.12085-0.29004 0-0.12891 0.037597-0.22559 0.11279-0.29004 0.075196-0.064453 0.18441-0.09668 0.32764-0.09668h0.84863v-0.36523c0-0.64812 0.18441-1.1181 0.55322-1.4099 0.36882-0.29183 0.965-0.43774 1.7886-0.43774 0.40104 0 0.69735 0.044759 0.88892 0.13428 0.19157 0.089519 0.28735 0.22917 0.28735 0.41895 0 0.111-0.041178 0.20231-0.12354 0.27393-0.082357 0.071615-0.18799 0.10742-0.31689 0.10742-0.064453 0-0.21932-0.021484-0.4646-0.064453-0.24528-0.042969-0.45565-0.064453-0.6311-0.064453-0.40462 0-0.69466 0.085041-0.87012 0.25513s-0.26318 0.45207-0.26318 0.84595v0.30615h1.9014c0.14681 0 0.25871 0.032226 0.33569 0.09668 0.076986 0.064453 0.11548 0.16113 0.11548 0.29004 0 0.12175-0.039388 0.21753-0.11816 0.28735-0.078776 0.069825-0.1862 0.10474-0.32227 0.10474h-1.8584v3.2817h1.751zm4.4526-5.7417c0-0.38672 0.034912-0.63021 0.10474-0.73047 0.069824-0.10026 0.21932-0.15039 0.44849-0.15039 0.22201 0 0.36881 0.042073 0.44043 0.12622 0.071615 0.084148 0.10742 0.28377 0.10742 0.59888 0 0.30794-0.033121 0.49862-0.099365 0.57202-0.066244 0.073405-0.21574 0.11011-0.44849 0.11011-0.22917 0-0.37866-0.034017-0.44849-0.10205-0.069825-0.068034-0.10474-0.20947-0.10474-0.42432zm0.99365 5.7524h1.7241c0.13965 0 0.24259 0.029541 0.30884 0.088623 0.066244 0.059082 0.099365 0.15308 0.099365 0.28198 0 0.14681-0.031331 0.24797-0.093994 0.30347-0.062663 0.055502-0.17814 0.083252-0.34644 0.083252h-4.168c-0.14323 0-0.25065-0.032226-0.32227-0.09668-0.071615-0.064453-0.10742-0.16113-0.10742-0.29004 0-0.12533 0.037597-0.21842 0.11279-0.2793s0.18799-0.091309 0.33838-0.091309h1.6382v-3.4429h-1.0474c-0.14681 0-0.25871-0.033121-0.33569-0.099365-0.076986-0.066244-0.11548-0.16203-0.11548-0.28735 0-0.12533 0.035807-0.21932 0.10742-0.28198 0.071615-0.062663 0.17904-0.093994 0.32227-0.093994h1.5737c0.09668 0 0.17277 0.019694 0.22827 0.059082 0.055502 0.039388 0.083252 0.093099 0.083252 0.16113v3.9854zm4.2861-1.4878c0.028646 0.51563 0.2032 0.91398 0.52368 1.1951 0.32048 0.28109 0.75822 0.42163 1.3132 0.42163 0.41895 0 0.87549-0.1119 1.3696-0.33569s0.79313-0.33569 0.89697-0.33569c0.10742 0 0.19694 0.034017 0.26855 0.10205s0.10742 0.15218 0.10742 0.25244c0 0.10384-0.037597 0.19873-0.11279 0.28467-0.075196 0.085938-0.19515 0.17008-0.35986 0.25244-0.35807 0.17546-0.72778 0.30973-1.1091 0.40283-0.38135 0.093099-0.76001 0.13965-1.136 0.13965-0.81641 0-1.4699-0.23543-1.9604-0.7063-0.49056-0.47087-0.73584-1.0948-0.73584-1.8718 0-0.79135 0.2596-1.4323 0.77881-1.9229 0.51921-0.49056 1.196-0.73584 2.0303-0.73584 0.75554 0 1.3822 0.22916 1.8799 0.6875 0.49772 0.45834 0.74658 1.0133 0.74658 1.665 0 0.20052-0.042073 0.3348-0.12622 0.40283-0.084148 0.068034-0.31242 0.10205-0.68481 0.10205h-3.6899zm0.026856-0.70361h3.4966c-0.053711-0.42611-0.23185-0.76896-0.53442-1.0286-0.30257-0.2596-0.67407-0.3894-1.1145-0.3894-0.47624 0-0.87728 0.12532-1.2031 0.37598-0.32585 0.25065-0.54069 0.59798-0.64453 1.042zm10.006 2.9487c-0.075196 0-0.12801-0.018799-0.15845-0.056396-0.030436-0.037598-0.045654-0.11011-0.045654-0.21753v-0.44043c-0.21484 0.26856-0.4834 0.47713-0.80566 0.62573-0.32227 0.1486-0.67138 0.2229-1.0474 0.2229-0.67676 0-1.2434-0.2408-1.7-0.72241-0.45655-0.48161-0.68481-1.0805-0.68481-1.7966 0-0.74121 0.24349-1.358 0.73047-1.8503s1.0939-0.73853 1.8208-0.73853c0.36882 0 0.70003 0.065348 0.99365 0.19604 0.29362 0.1307 0.54606 0.32316 0.75732 0.57739v-2.0571h-0.28467c-0.31152 0-0.51294-0.02775-0.60425-0.083252-0.091309-0.055502-0.13696-0.15666-0.13696-0.30347 0-0.12891 0.036702-0.22559 0.11011-0.29004s0.17993-0.09668 0.31958-0.09668h1.1011c0.10742 0 0.1853 0.017903 0.23364 0.053711s0.07251 0.091308 0.07251 0.1665v6.0532h0.2417c0.17546 0 0.30257 0.029541 0.38135 0.088623 0.078776 0.059082 0.11816 0.15308 0.11816 0.28198 0 0.12175-0.034017 0.21663-0.10205 0.28467s-0.15934 0.10205-0.27393 0.10205h-1.0366zm-3.5181-2.4116c0 0.49414 0.15934 0.89876 0.47803 1.2139 0.31869 0.31511 0.7233 0.47266 1.2139 0.47266 0.49414 0 0.90055-0.16382 1.2192-0.49146 0.31869-0.32764 0.47803-0.74389 0.47803-1.2488 0-0.49772-0.15845-0.90771-0.47534-1.23-0.3169-0.32227-0.7242-0.4834-1.2219-0.4834-0.50489 0-0.91308 0.16292-1.2246 0.48877-0.31152 0.32585-0.46729 0.75195-0.46729 1.2783z" fill="#fff" fill-rule="evenodd"/>
<polyline points="8.3232 10.503 12.344 14 17.388 5.1753" fill="none" stroke="#fff" stroke-width="2"/>
</g>
</g>
<g mask="url(#a)">
<g transform="translate(261 98)">
<rect width="92" height="21" rx="10.5" fill="url(#c)" fill-rule="evenodd"/>
<path d="m26.639 8.4033h-0.069824c-0.17904 0-0.30615-0.029541-0.38135-0.088623-0.075196-0.059082-0.11279-0.15845-0.11279-0.2981 0-0.12533 0.032226-0.22111 0.09668-0.28735s0.15755-0.099365 0.2793-0.099365h1.6274c0.21126 0 0.3536 0.028646 0.427 0.085938 0.073405 0.057292 0.11011 0.15755 0.11011 0.30078 0 0.13249-0.039388 0.23006-0.11816 0.29272-0.078776 0.062663-0.2041 0.093994-0.37598 0.093994h-0.59082l1.8262 4.6836 1.7778-4.6836h-0.71436c-0.1683 0-0.29272-0.031331-0.37329-0.093994-0.080567-0.062663-0.12085-0.16024-0.12085-0.29272 0-0.14323 0.037597-0.24349 0.11279-0.30078 0.075196-0.057292 0.21663-0.085938 0.42432-0.085938h1.6865c0.12175 0 0.21395 0.033121 0.27661 0.099365 0.062663 0.066244 0.093994 0.16203 0.093994 0.28735 0 0.13965-0.037597 0.23901-0.11279 0.2981-0.075196 0.059082-0.20589 0.088623-0.39209 0.088623h-0.064453l-1.9336 5.0596c-0.111 0.26856-0.19873 0.43595-0.26318 0.5022-0.064453 0.066244-0.14681 0.099365-0.24707 0.099365h-0.30615c-0.23633 0-0.4279-0.18978-0.57471-0.56934l-0.010742-0.032227-1.9766-5.0596zm7.4443 3.3516c0.028646 0.51563 0.2032 0.91398 0.52368 1.1951 0.32048 0.28109 0.75822 0.42163 1.3132 0.42163 0.41895 0 0.87549-0.1119 1.3696-0.33569s0.79313-0.33569 0.89697-0.33569c0.10742 0 0.19694 0.034017 0.26855 0.10205s0.10742 0.15218 0.10742 0.25244c0 0.10384-0.037597 0.19873-0.11279 0.28467-0.075196 0.085938-0.19515 0.17008-0.35986 0.25244-0.35807 0.17546-0.72778 0.30973-1.1091 0.40283-0.38135 0.093099-0.76001 0.13965-1.136 0.13965-0.81641 0-1.4699-0.23543-1.9604-0.7063-0.49056-0.47087-0.73584-1.0948-0.73584-1.8718 0-0.79135 0.2596-1.4323 0.77881-1.9229 0.51921-0.49056 1.196-0.73584 2.0303-0.73584 0.75554 0 1.3822 0.22916 1.8799 0.6875 0.49772 0.45834 0.74658 1.0133 0.74658 1.665 0 0.20052-0.042073 0.3348-0.12622 0.40283-0.084148 0.068034-0.31242 0.10205-0.68481 0.10205h-3.6899zm0.026856-0.70361h3.4966c-0.053711-0.42611-0.23185-0.76896-0.53442-1.0286-0.30257-0.2596-0.67407-0.3894-1.1145-0.3894-0.47624 0-0.87728 0.12532-1.2031 0.37598-0.32585 0.25065-0.54069 0.59798-0.64453 1.042zm7.8633 2.1914h1.7832c0.13965 0 0.24259 0.029541 0.30884 0.088623 0.066244 0.059082 0.099365 0.15308 0.099365 0.28198 0 0.14681-0.031331 0.24797-0.093994 0.30347-0.062663 0.055502-0.17814 0.083252-0.34644 0.083252h-3.5127c-0.13965 0-0.24528-0.032226-0.31689-0.09668-0.071615-0.064453-0.10742-0.16113-0.10742-0.29004 0-0.12533 0.036702-0.21842 0.11011-0.2793s0.18709-0.091309 0.34106-0.091309h0.93457v-3.4429h-0.36523c-0.34733 0-0.56396-0.02775-0.6499-0.083252-0.085938-0.055502-0.12891-0.15666-0.12891-0.30347 0-0.12533 0.034912-0.21932 0.10474-0.28198 0.069825-0.062663 0.17635-0.093994 0.31958-0.093994h1.2246c0.09668 0 0.17008 0.018799 0.22021 0.056396s0.075195 0.092203 0.075195 0.16382v0.91309c0.34017-0.42611 0.69466-0.743 1.0635-0.95068 0.36882-0.20768 0.76627-0.31152 1.1924-0.31152 0.31869 0 0.5765 0.064452 0.77344 0.19336s0.29541 0.29541 0.29541 0.49951c0 0.13249-0.049234 0.24976-0.1477 0.35181-0.098471 0.10205-0.20679 0.15308-0.32495 0.15308-0.082357 0-0.22111-0.054606-0.41626-0.16382-0.19515-0.10921-0.36971-0.16382-0.52368-0.16382-0.2793 0-0.57381 0.099364-0.88354 0.2981-0.30973 0.19873-0.65259 0.51294-1.0286 0.94263v2.2236zm6.6333-5.7524c0-0.38672 0.034912-0.63021 0.10474-0.73047 0.069825-0.10026 0.21932-0.15039 0.44849-0.15039 0.22201 0 0.36881 0.042073 0.44043 0.12622 0.071615 0.084148 0.10742 0.28377 0.10742 0.59888 0 0.30794-0.033121 0.49862-0.099365 0.57202-0.066244 0.073405-0.21574 0.11011-0.44849 0.11011-0.22917 0-0.37866-0.034017-0.44849-0.10205-0.069824-0.068034-0.10474-0.20947-0.10474-0.42432zm0.99365 5.7524h1.7241c0.13965 0 0.24259 0.029541 0.30884 0.088623 0.066244 0.059082 0.099365 0.15308 0.099365 0.28198 0 0.14681-0.031331 0.24797-0.093994 0.30347-0.062663 0.055502-0.17814 0.083252-0.34644 0.083252h-4.168c-0.14323 0-0.25065-0.032226-0.32227-0.09668-0.071615-0.064453-0.10742-0.16113-0.10742-0.29004 0-0.12533 0.037597-0.21842 0.11279-0.2793s0.18799-0.091309 0.33838-0.091309h1.6382v-3.4429h-1.0474c-0.14681 0-0.25871-0.033121-0.33569-0.099365-0.076986-0.066244-0.11548-0.16203-0.11548-0.28735 0-0.12533 0.035807-0.21932 0.10742-0.28198 0.071615-0.062663 0.17904-0.093994 0.32227-0.093994h1.5737c0.09668 0 0.17277 0.019694 0.22827 0.059082 0.055502 0.039388 0.083252 0.093099 0.083252 0.16113v3.9854zm7.7559-0.010742c0.14681 0 0.25871 0.032226 0.33569 0.09668 0.076986 0.064453 0.11548 0.15934 0.11548 0.28467 0 0.12891-0.036702 0.22559-0.11011 0.29004-0.073405 0.064454-0.17993 0.09668-0.31958 0.09668h-3.5127c-0.14681 0-0.25871-0.032226-0.33569-0.09668-0.076986-0.064453-0.11548-0.16113-0.11548-0.29004 0-0.12533 0.036702-0.22021 0.11011-0.28467 0.073405-0.064454 0.17993-0.09668 0.31958-0.09668h0.91309v-3.2817h-0.88086c-0.14681 0-0.2605-0.034017-0.34106-0.10205-0.080567-0.068034-0.12085-0.16471-0.12085-0.29004 0-0.12891 0.037597-0.22559 0.11279-0.29004 0.075196-0.064453 0.18441-0.09668 0.32764-0.09668h0.84863v-0.36523c0-0.64812 0.18441-1.1181 0.55322-1.4099 0.36882-0.29183 0.965-0.43774 1.7886-0.43774 0.40104 0 0.69735 0.044759 0.88892 0.13428 0.19157 0.089519 0.28735 0.22917 0.28735 0.41895 0 0.111-0.041178 0.20231-0.12354 0.27393-0.082357 0.071615-0.18799 0.10742-0.31689 0.10742-0.064453 0-0.21932-0.021484-0.4646-0.064453-0.24528-0.042969-0.45565-0.064453-0.6311-0.064453-0.40462 0-0.69466 0.085041-0.87012 0.25513s-0.26318 0.45207-0.26318 0.84595v0.30615h1.9014c0.14681 0 0.25871 0.032226 0.33569 0.09668 0.076986 0.064453 0.11548 0.16113 0.11548 0.29004 0 0.12175-0.039388 0.21753-0.11816 0.28735-0.078776 0.069825-0.1862 0.10474-0.32227 0.10474h-1.8584v3.2817h1.751zm4.4526-5.7417c0-0.38672 0.034912-0.63021 0.10474-0.73047 0.069824-0.10026 0.21932-0.15039 0.44849-0.15039 0.22201 0 0.36881 0.042073 0.44043 0.12622 0.071615 0.084148 0.10742 0.28377 0.10742 0.59888 0 0.30794-0.033121 0.49862-0.099365 0.57202-0.066244 0.073405-0.21574 0.11011-0.44849 0.11011-0.22917 0-0.37866-0.034017-0.44849-0.10205-0.069825-0.068034-0.10474-0.20947-0.10474-0.42432zm0.99365 5.7524h1.7241c0.13965 0 0.24259 0.029541 0.30884 0.088623 0.066244 0.059082 0.099365 0.15308 0.099365 0.28198 0 0.14681-0.031331 0.24797-0.093994 0.30347-0.062663 0.055502-0.17814 0.083252-0.34644 0.083252h-4.168c-0.14323 0-0.25065-0.032226-0.32227-0.09668-0.071615-0.064453-0.10742-0.16113-0.10742-0.29004 0-0.12533 0.037597-0.21842 0.11279-0.2793s0.18799-0.091309 0.33838-0.091309h1.6382v-3.4429h-1.0474c-0.14681 0-0.25871-0.033121-0.33569-0.099365-0.076986-0.066244-0.11548-0.16203-0.11548-0.28735 0-0.12533 0.035807-0.21932 0.10742-0.28198 0.071615-0.062663 0.17904-0.093994 0.32227-0.093994h1.5737c0.09668 0 0.17277 0.019694 0.22827 0.059082 0.055502 0.039388 0.083252 0.093099 0.083252 0.16113v3.9854zm4.2861-1.4878c0.028646 0.51563 0.2032 0.91398 0.52368 1.1951 0.32048 0.28109 0.75822 0.42163 1.3132 0.42163 0.41895 0 0.87549-0.1119 1.3696-0.33569s0.79313-0.33569 0.89697-0.33569c0.10742 0 0.19694 0.034017 0.26855 0.10205s0.10742 0.15218 0.10742 0.25244c0 0.10384-0.037597 0.19873-0.11279 0.28467-0.075196 0.085938-0.19515 0.17008-0.35986 0.25244-0.35807 0.17546-0.72778 0.30973-1.1091 0.40283-0.38135 0.093099-0.76001 0.13965-1.136 0.13965-0.81641 0-1.4699-0.23543-1.9604-0.7063-0.49056-0.47087-0.73584-1.0948-0.73584-1.8718 0-0.79135 0.2596-1.4323 0.77881-1.9229 0.51921-0.49056 1.196-0.73584 2.0303-0.73584 0.75554 0 1.3822 0.22916 1.8799 0.6875 0.49772 0.45834 0.74658 1.0133 0.74658 1.665 0 0.20052-0.042073 0.3348-0.12622 0.40283-0.084148 0.068034-0.31242 0.10205-0.68481 0.10205h-3.6899zm0.026856-0.70361h3.4966c-0.053711-0.42611-0.23185-0.76896-0.53442-1.0286-0.30257-0.2596-0.67407-0.3894-1.1145-0.3894-0.47624 0-0.87728 0.12532-1.2031 0.37598-0.32585 0.25065-0.54069 0.59798-0.64453 1.042zm10.006 2.9487c-0.075196 0-0.12801-0.018799-0.15845-0.056396-0.030436-0.037598-0.045654-0.11011-0.045654-0.21753v-0.44043c-0.21484 0.26856-0.4834 0.47713-0.80566 0.62573-0.32227 0.1486-0.67138 0.2229-1.0474 0.2229-0.67676 0-1.2434-0.2408-1.7-0.72241-0.45655-0.48161-0.68481-1.0805-0.68481-1.7966 0-0.74121 0.24349-1.358 0.73047-1.8503s1.0939-0.73853 1.8208-0.73853c0.36882 0 0.70003 0.065348 0.99365 0.19604 0.29362 0.1307 0.54606 0.32316 0.75732 0.57739v-2.0571h-0.28467c-0.31152 0-0.51294-0.02775-0.60425-0.083252-0.091309-0.055502-0.13696-0.15666-0.13696-0.30347 0-0.12891 0.036702-0.22559 0.11011-0.29004s0.17993-0.09668 0.31958-0.09668h1.1011c0.10742 0 0.1853 0.017903 0.23364 0.053711s0.07251 0.091308 0.07251 0.1665v6.0532h0.2417c0.17546 0 0.30257 0.029541 0.38135 0.088623 0.078776 0.059082 0.11816 0.15308 0.11816 0.28198 0 0.12175-0.034017 0.21663-0.10205 0.28467s-0.15934 0.10205-0.27393 0.10205h-1.0366zm-3.5181-2.4116c0 0.49414 0.15934 0.89876 0.47803 1.2139 0.31869 0.31511 0.7233 0.47266 1.2139 0.47266 0.49414 0 0.90055-0.16382 1.2192-0.49146 0.31869-0.32764 0.47803-0.74389 0.47803-1.2488 0-0.49772-0.15845-0.90771-0.47534-1.23-0.3169-0.32227-0.7242-0.4834-1.2219-0.4834-0.50489 0-0.91308 0.16292-1.2246 0.48877-0.31152 0.32585-0.46729 0.75195-0.46729 1.2783z" fill="#fff" fill-rule="evenodd"/>
<polyline points="8.3232 10.503 12.344 14 17.388 5.1753" fill="none" stroke="#fff" stroke-width="2"/>
</g>
</g>
</g>
</g>
</g>
</g>
</svg>
